<?xml version="1.0" standalone="no"?>
<!DOCTYPE svg PUBLIC "-//W3C//DTD SVG 1.1//EN" "http://www.w3.org/Graphics/SVG/1.1/DTD/svg11.dtd" >
<svg xmlns="http://www.w3.org/2000/svg">
<metadata>
Created by FontPrep 20130207 at Thu Jun 16 12:40:24 2016
 By Aleksander
Copyright (c) 2009 by Alexander Kalachev, Alexey Maslov, Jovanny Lemonad. All rights reserved.
</metadata>
<defs>
<font id="e807d3ccf8d24c8c1a3d86db5da78da8" horiz-adv-x='1024' >
  <font-face 
    font-family="Days"
    font-weight="400"
    font-stretch="normal"
    units-per-em="2048"
    panose-1="2 0 5 5 5 0 0 2 0 4"
    ascent="1638"
    descent="-410"
    x-height="1096"
    cap-height="1434"
    bbox="-184 -369 2515 2030"
    underline-thickness="102"
    underline-position="-102"
    unicode-range="U+0020-2122"
  />
<missing-glyph horiz-adv-x="716" 
 />
    <glyph glyph-name=".notdef" horiz-adv-x="716" 
 />
    <glyph glyph-name=".null" horiz-adv-x="0" 
 />
    <glyph glyph-name="nonmarkingreturn" horiz-adv-x="681" 
 />
    <glyph glyph-name="space" unicode=" " horiz-adv-x="716" 
 />
    <glyph glyph-name="exclam" unicode="!" horiz-adv-x="653" 
d="M406 426h-158q-39 0 -66 27t-28 65l-29 821q-2 39 27 67t67 28h215q39 0 68 -28t26 -67l-28 -821q-2 -40 -28 -66t-66 -26zM131 125v63q0 66 35 101t100 35h123q135 0 135 -136v-63q0 -63 -35 -99t-100 -36h-123q-66 0 -100 36t-35 99z" />
    <glyph glyph-name="quotedbl" unicode="&#x22;" horiz-adv-x="806" 
d="M143 1434h131q37 0 60 -24t20 -58l-30 -426q-4 -37 -27 -60t-57 -22h-62q-36 0 -58 22t-26 60l-31 426q-1 34 21 58t59 24zM532 1434h132q38 0 60 -24t19 -58l-30 -426q-4 -37 -27 -60t-57 -22h-62q-35 0 -57 22t-27 60l-30 426q-2 34 20 58t59 24z" />
    <glyph glyph-name="numbersign" unicode="#" horiz-adv-x="1714" 
d="M731 870l-86 -307h309l86 307h-309zM1495 569q27 0 44 -17t17 -44v-119q0 -27 -16 -44t-43 -17h-280l-66 -234q-27 -94 -164 -94h-115q-37 0 -51 27t-4 67l66 234h-297l-66 -234q-27 -94 -164 -94h-114q-37 0 -52 27q-14 27 -4 67l66 234h-150q-27 0 -44 17t-17 44v119
q2 27 18 44t43 17h217l84 295h-210q-27 0 -45 18t-17 44v118q0 27 17 45q18 17 45 17h278l68 233q27 94 163 95h115q37 0 51 -27t4 -68l-67 -233h297l67 233q27 94 164 95h115q37 0 51 -27t4 -68l-67 -233h176q27 0 43 -17t18 -45v-118q-4 -60 -61 -62h-244l-84 -295h211z
" />
    <glyph glyph-name="dollar" unicode="$" horiz-adv-x="1595" 
d="M774 1159v-276l55 -11v287h-55zM774 274h55v277l-55 10v-287zM451 1044q0 -80 188 -131v246h-12q-176 0 -176 -115zM1157 389q0 80 -192 131v-246h16q176 0 176 115zM639 1534q0 27 17 44t44 17h74v-153h55v153h74q27 0 44 -17t18 -44v-92q203 -2 367 -108t165 -261
q0 -59 -35 -85t-67 -25h-119q-90 0 -134 92t-177 102v-313q231 -52 386 -135q183 -101 183 -295t-129 -302t-440 -118v-94q1 -27 -17 -44t-45 -18h-74v154h-55v-154h-74q-27 0 -44 18t-17 44v92h-43q-205 0 -370 105t-165 263q0 59 35 85t68 26h119q90 0 137 -98t211 -99h8
v318q-319 68 -448 179q-50 44 -83 109q-34 65 -34 144q0 190 128 296t437 120v94z" />
    <glyph glyph-name="percent" unicode="%" horiz-adv-x="1714" 
d="M758 1122q0 -154 -100 -242t-248 -89q-150 0 -249 89q-99 88 -99 242t98 243q100 89 250 89t249 -89t99 -243zM524 1122q0 68 -30 107q-31 39 -84 39t-84 -39t-31 -107t31 -106t84 -39q54 1 84 39t30 106zM1653 313q1 -155 -99 -243t-250 -88t-248 89q-100 89 -100 243
t100 242q100 89 249 89q150 0 249 -89t99 -243zM1419 313q0 68 -30 107q-31 39 -84 39t-84 -39t-31 -107q0 -69 31 -107t84 -38t83 38t31 107zM1346 1434h159q39 0 50 -31t-15 -64l-997 -1245q-74 -94 -174 -94h-160q-39 0 -50 31t15 63l997 1245q75 95 175 95z" />
    <glyph glyph-name="ampersand" unicode="&#x26;" horiz-adv-x="1560" 
d="M643 221q123 0 211 60l-356 321q-100 -49 -101 -178q0 -203 246 -203zM211 1047q0 175 139 291t392 116q252 0 398 -88t146 -260q0 -27 -17 -44t-44 -18h-133q-68 0 -115 74q-59 94 -232 94q-88 0 -137 -38t-49 -110q0 -71 44 -132t128 -133l346 -301l99 141q35 47 81 16
l109 -73q51 -37 16 -86l-120 -172l256 -230q32 -30 18 -62t-53 -32h-228q-79 0 -143 50q-22 17 -61 54q-195 -124 -448 -124t-397 118t-145 326q0 279 240 389q-90 98 -90 234z" />
    <glyph glyph-name="quotesingle" unicode="'" horiz-adv-x="417" 
d="M143 1434h131q37 0 60 -24t20 -58l-30 -426q-4 -37 -27 -60t-57 -22h-62q-36 0 -58 22t-26 60l-31 426q-1 34 21 58t59 24z" />
    <glyph glyph-name="parenleft" unicode="(" horiz-adv-x="665" 
d="M373 625q0 -393 239 -686q45 -51 25 -82l-57 -95q-14 -24 -38 -30t-44 8q-217 143 -327 380t-110 505q0 269 110 505t327 379q20 13 44 7t38 -29l57 -94q20 -31 -25 -82q-239 -293 -239 -686z" />
    <glyph glyph-name="parenright" unicode=")" horiz-adv-x="665" 
d="M293 625q0 393 -240 686q-45 51 -24 82l57 94q14 23 38 30t44 -8q217 -143 327 -380q109 -237 109 -505t-110 -504q-110 -237 -326 -380q-20 -14 -44 -7t-38 29l-57 95q-20 31 24 82q240 293 240 686z" />
    <glyph glyph-name="asterisk" unicode="*" horiz-adv-x="872" 
d="M389 1434h94q27 0 44 -16t18 -40l-2 -157l133 82q24 14 48 7t36 -30l41 -76q12 -20 6 -46t-29 -38l-143 -76l143 -75q23 -12 29 -38t-6 -46l-41 -76q-12 -23 -36 -30t-48 7l-133 82l2 -157q1 -25 -17 -40t-45 -16h-94q-27 -1 -44 15t-17 41l2 157l-133 -82
q-25 -14 -49 -7t-35 30l-41 76q-12 20 -6 46t28 38l144 75l-144 76q-23 12 -28 38q-6 26 6 46l41 76q11 23 35 30t49 -7l133 -82l-2 157q0 24 17 40t44 16z" />
    <glyph glyph-name="plus" unicode="+" horiz-adv-x="958" 
d="M352 246v262h-250q-27 0 -44 17t-17 44v119q0 27 17 44t44 18h250v249q0 27 18 44t44 18h118q26 1 44 -17t18 -45v-249h262q27 0 44 -18t18 -44v-119q0 -27 -18 -44t-44 -17h-262v-262q0 -27 -17 -44t-45 -18h-118q-26 0 -44 18t-18 44z" />
    <glyph glyph-name="comma" unicode="," horiz-adv-x="550" 
d="M178 -248h-39q-63 0 -84 33q-20 33 -8 102l59 322q8 47 54 81t98 34h82q80 0 112 -42t3 -114l-119 -301q-20 -49 -62 -82t-96 -33z" />
    <glyph glyph-name="hyphen" unicode="-" horiz-adv-x="958" 
d="M102 750h754q27 0 44 -18t18 -44v-119q0 -27 -18 -44t-44 -17h-754q-27 0 -44 17t-17 44v119q0 26 17 44t44 18z" />
    <glyph glyph-name="period" unicode="." horiz-adv-x="557" 
d="M82 125v63q0 66 35 101t100 35h123q135 0 135 -136v-63q0 -63 -35 -99t-100 -36h-123q-67 0 -101 36t-34 99z" />
    <glyph glyph-name="slash" unicode="/" horiz-adv-x="1054" 
d="M838 1434h168q37 0 46 -29t-12 -66l-649 -1245q-47 -94 -174 -94h-168q-37 0 -46 29t11 65l650 1245q47 95 174 95z" />
    <glyph glyph-name="zero" unicode="0" horiz-adv-x="1630" 
d="M780 1442h70q312 0 514 -162q203 -162 204 -562t-211 -572q-192 -154 -507 -154h-70q-311 0 -507 154q-210 168 -212 571q0 559 439 688q124 37 280 37zM815 1159q-377 0 -377 -442t377 -443q377 0 377 442t-377 443z" />
    <glyph glyph-name="one" unicode="1" horiz-adv-x="798" 
d="M412 1434h147q41 0 69 -28t27 -67v-1245q-1 -38 -29 -66t-67 -28h-186q-39 0 -67 27t-27 65v967l-115 -84q-20 -14 -46 -9t-42 23l-76 96q-33 45 20 91l244 210q54 48 148 48z" />
    <glyph glyph-name="two" unicode="2" horiz-adv-x="1437" 
d="M61 240q0 127 53 220q52 93 134 146q152 98 383 153q100 25 182 49q186 56 186 157q0 113 -58 153t-196 41h-71q-193 0 -254 -123q-45 -94 -135 -94h-119q-48 0 -75 35q-28 35 -28 76q-1 115 87 205t218 138q130 46 271 46h135q262 0 432 -101t170 -376q0 -117 -52 -206
t-134 -141q-153 -98 -383 -153q-100 -25 -182 -47q-187 -51 -187 -135h830q40 0 68 -28t28 -67v-94q0 -38 -29 -66t-67 -28h-1110q-39 0 -68 28t-29 66v146z" />
    <glyph glyph-name="three" unicode="3" horiz-adv-x="1480" 
d="M768 1159h-74q-193 0 -254 -123q-45 -94 -135 -94h-119q-48 0 -76 35t-26 76q0 115 87 205t217 138q130 46 271 46h138q602 0 602 -438q0 -182 -137 -287q158 -98 157 -289q0 -232 -147 -334t-432 -102h-213q-223 0 -400 110q-176 111 -176 289q0 59 35 85t68 26h118
q92 0 146 -114t244 -114h143q123 0 180 35t57 119t-57 119t-180 35h-180q-39 0 -67 28t-28 66v82q0 38 27 66t64 28h147q133 0 194 35q60 35 60 119t-60 118t-194 35z" />
    <glyph glyph-name="four" unicode="4" horiz-adv-x="1556" 
d="M932 535v579l-510 -579h510zM20 346v119q0 88 62 156l661 751q55 61 156 62h313q41 0 69 -28t28 -67v-804h110q41 0 69 -28t28 -67v-94q0 -38 -29 -66t-68 -28h-110v-158q0 -38 -29 -66t-68 -28h-186q-39 0 -67 27t-27 65v160h-815q-39 0 -68 28t-29 66z" />
    <glyph glyph-name="five" unicode="5" horiz-adv-x="1484" 
d="M844 -8h-228q-226 0 -380 101t-154 253q0 59 35 85t67 26h119q84 1 134 -91t214 -92h158q123 0 180 39t58 133t-57 134t-181 38h-582q-39 0 -67 27t-27 66v628q0 41 28 68t66 27h1030q41 0 68 -27t27 -68v-94q0 -41 -27 -67t-68 -27h-747v-250h334q285 0 432 -106
q147 -107 147 -349t-147 -348t-432 -106z" />
    <glyph glyph-name="six" unicode="6" horiz-adv-x="1521" 
d="M846 606h-387v-123q0 -123 55 -166t182 -43h150q123 0 180 36t57 130t-57 130t-180 36zM459 889h422q285 1 432 -103t147 -346t-147 -345t-432 -103h-219q-289 0 -435 110q-145 111 -145 381v443q0 284 144 400t431 116h254q225 0 376 -100t151 -248q0 -59 -35 -85
t-68 -26h-118q-77 0 -131 88t-209 88h-185q-123 0 -178 -49t-55 -184v-37z" />
    <glyph glyph-name="seven" unicode="7" horiz-adv-x="1304" 
d="M117 1151q-41 0 -69 28t-28 66v94q0 39 29 67t68 28h1071q40 0 68 -28t28 -67v-92q0 -70 -61 -182l-525 -971q-51 -94 -131 -94h-205q-41 0 -57 26t0 58l578 1067h-766z" />
    <glyph glyph-name="eight" unicode="8" horiz-adv-x="1548" 
d="M680 1442h188q230 0 395 -95t167 -321q0 -154 -136 -264q193 -102 193 -322t-160 -335q-160 -114 -412 -113h-282q-252 0 -412 114t-160 333q0 220 193 323q-135 111 -135 264q0 314 347 393q97 23 214 23zM823 1159h-102q-123 0 -180 -34q-57 -33 -57 -113t56 -114
q58 -34 181 -34h102q123 0 181 34q57 34 57 114q1 80 -57 114t-181 33zM676 274h196q123 0 181 35q57 35 57 123t-57 123t-181 35h-196q-123 0 -180 -35q-58 -35 -58 -123t58 -123t180 -35z" />
    <glyph glyph-name="nine" unicode="9" horiz-adv-x="1521" 
d="M676 827h387v123q0 123 -55 166t-183 43h-149q-123 0 -180 -36q-58 -36 -58 -130t58 -130t180 -36zM1063 545h-422q-285 0 -432 103t-148 345t147 345t433 104h219q289 0 434 -111t146 -381v-442q0 -284 -144 -400t-432 -116h-254q-225 0 -376 99t-150 249q0 59 35 85
t67 26h119q78 -1 131 -89t209 -88h184q123 0 179 50t55 184v37z" />
    <glyph glyph-name="colon" unicode=":" horiz-adv-x="557" 
d="M82 918v63q0 63 35 99t100 36h123q66 0 100 -36t35 -99v-63q0 -66 -35 -101t-100 -35h-123q-135 0 -135 136zM82 125v63q0 66 35 101t100 35h123q135 0 135 -136v-63q0 -63 -35 -99t-100 -36h-123q-67 0 -101 36t-34 99z" />
    <glyph glyph-name="semicolon" unicode=";" horiz-adv-x="561" 
d="M86 918v63q0 63 35 99t100 36h123q66 0 100 -36t35 -99v-63q0 -66 -35 -101t-100 -35h-123q-135 0 -135 136zM178 -248h-39q-63 0 -84 33q-20 33 -8 102l59 322q8 47 54 81t98 34h82q80 0 112 -42t3 -114l-119 -301q-20 -49 -62 -82t-96 -33z" />
    <glyph glyph-name="less" unicode="&#x3c;" horiz-adv-x="860" 
d="M61 522v49q0 66 60 109l569 403q35 23 62 10t26 -51v-172q0 -74 -88 -135l-266 -188l266 -189q88 -61 88 -135v-172q0 -37 -26 -50t-62 9l-569 404q-60 42 -60 108z" />
    <glyph glyph-name="equal" unicode="=" horiz-adv-x="999" 
d="M123 535h754q27 1 44 -17t17 -45v-119q0 -27 -17 -44t-44 -17h-754q-27 0 -44 17t-18 44v119q-1 27 17 45t45 17zM123 956h754q27 0 44 -17t17 -44v-119q0 -27 -17 -44t-44 -17h-754q-27 0 -44 17t-18 44v119q-1 27 17 44t45 17z" />
    <glyph glyph-name="greater" unicode="&#x3e;" horiz-adv-x="860" 
d="M799 571v-49q0 -66 -60 -108l-569 -404q-36 -24 -62 -10t-26 51v172q0 74 88 135l266 189l-266 188q-88 61 -88 135v172q0 36 27 50t61 -9l569 -403q60 -43 60 -109z" />
    <glyph glyph-name="question" unicode="?" horiz-adv-x="1341" 
d="M748 426h-226q-27 0 -44 17t-17 44q0 86 33 152q34 65 82 103q93 72 212 126q115 54 115 133q0 80 -54 119t-173 39h-51q-166 0 -228 -123q-45 -94 -135 -94h-119q-48 0 -76 35q-27 35 -26 76q0 169 172 279t377 110h115q575 0 575 -447q0 -100 -48 -174
q-48 -75 -118 -113t-140 -69q-166 -74 -165 -143q0 -70 -61 -70zM440 125v63q0 66 36 101t99 35h123q64 0 100 -35t36 -101v-63q0 -63 -36 -99t-100 -36h-123q-63 0 -99 36t-36 99z" />
    <glyph glyph-name="at" unicode="@" horiz-adv-x="1699" 
d="M1382 766q0 467 -521 467q-251 0 -397 -159t-146 -419q0 -261 146 -419q148 -158 406 -158q135 0 217 15t103 16h29q27 1 44 -19t17 -47v-94q0 -23 -17 -40t-44 -22q-154 -31 -349 -30q-372 0 -590 212q-218 213 -218 587t218 586t583 212t571 -167t204 -521
q0 -217 -118 -354t-355 -138h-96q-19 0 -31 12t-12 29v23q-106 -76 -248 -76t-233 62q-90 62 -90 177q0 114 90 175t233 61h226q0 80 -33 112t-116 32t-124 -45q-25 -37 -78 -37h-102q-16 0 -29 11q-12 11 -12 30q0 197 373 196q162 0 261 -74t99 -225v-268q139 0 139 297z
M803 416q106 0 201 61v107h-207q-49 0 -78 -24t-29 -60t30 -60t83 -24z" />
    <glyph glyph-name="A" unicode="A" 
d="M1188 629v522h-285q-96 0 -168 -54q-71 -55 -96 -147l-88 -321h637zM1479 1434q37 0 61 -28t25 -65v-1249q0 -40 -28 -66t-67 -26h-188q-41 0 -68 27t-26 67v252h-711l-67 -252q-10 -42 -45 -68t-74 -26h-197q-39 0 -59 26t-10 66l251 952q102 389 664 390h539z" />
    <glyph glyph-name="B" unicode="B" horiz-adv-x="1689" 
d="M1092 614h-572v-344h572q78 0 118 46t41 126q-1 80 -41 126t-118 46zM1055 1163h-535v-286h535q63 -1 101 37t38 106t-38 106t-101 37zM143 94v1245q0 39 28 67t67 28h813q299 0 441 -171q79 -95 79 -243t-135 -258q193 -102 192 -332q0 -206 -154 -318t-376 -112h-860
q-39 0 -67 28t-28 66z" />
    <glyph glyph-name="C" unicode="C" horiz-adv-x="1673" 
d="M61 717q-1 371 185 548t557 177h223q227 0 401 -118t175 -323q0 -59 -35 -85t-68 -25h-119q-92 0 -143 110q-74 158 -246 158h-178q-219 0 -297 -94t-78 -348t78 -348t297 -95h199q172 0 245 158q51 111 144 111h119q48 0 76 -35t26 -76q0 -204 -174 -322t-401 -118h-244
q-371 0 -557 177t-185 548z" />
    <glyph glyph-name="D" unicode="D" horiz-adv-x="1687" 
d="M786 1151h-266v-868h266q268 0 366 98q97 98 97 336t-97 336q-98 98 -366 98zM238 1434h559q433 0 631 -173t198 -544t-198 -544t-631 -173h-559q-39 0 -67 27t-28 65v1245q0 41 28 69t67 28z" />
    <glyph glyph-name="E" unicode="E" horiz-adv-x="1525" 
d="M1391 1434q39 0 67 -28t27 -67v-94q0 -39 -28 -67t-66 -27h-871v-291h750q38 0 66 -28t28 -66v-94q0 -39 -28 -67t-66 -27h-750v-295h869q39 0 65 -27t27 -66v-96q0 -38 -28 -66t-67 -28h-1148q-39 0 -67 28t-28 68v1245q0 39 28 66t67 27h1153z" />
    <glyph glyph-name="F" unicode="F" horiz-adv-x="1505" 
d="M426 0h-188q-39 0 -67 28t-28 68v1245q0 39 28 66t67 27h1153q39 0 67 -28t27 -67v-94q0 -39 -28 -67t-66 -27h-871v-352h709q39 0 67 -28t27 -66v-95q0 -38 -28 -66t-66 -28h-709v-420q0 -40 -28 -68t-66 -28z" />
    <glyph glyph-name="G" unicode="G" horiz-adv-x="1695" 
d="M1038 512q-38 0 -66 28t-28 66v78q0 39 28 67t66 27h502q39 0 67 -28t27 -66v-111q0 -281 -168 -431t-493 -150h-225q-332 0 -509 179t-177 548t184 546q186 177 557 177h223q221 0 398 -106t178 -263q0 -59 -35 -85t-68 -25h-119q-86 0 -137 98t-252 98h-178
q-219 0 -297 -94t-78 -346t70 -348t250 -97h205q163 0 231 62t70 176h-226z" />
    <glyph glyph-name="H" unicode="H" horiz-adv-x="1728" 
d="M1208 92v514h-688v-514q0 -40 -28 -66t-66 -26h-186q-39 0 -68 28t-29 66v1245q0 39 28 67t69 28h186q39 0 67 -28t27 -67v-450h688v450q0 39 28 67t67 28h186q41 0 69 -28t27 -67v-1245q0 -38 -29 -66t-67 -28h-186q-39 0 -67 26t-28 66z" />
    <glyph glyph-name="I" unicode="I" horiz-adv-x="663" 
d="M143 92v1247q0 39 28 67t67 28h186q41 0 69 -28t27 -67v-1245q0 -38 -28 -66t-68 -28h-186q-39 0 -67 26t-28 66z" />
    <glyph glyph-name="J" unicode="J" horiz-adv-x="1130" 
d="M367 283q139 0 201 57t63 192v807q0 39 27 67q28 28 67 28h186q41 0 69 -28t28 -67v-804q0 -255 -170 -395t-461 -140h-283q-38 0 -66 28t-28 66v113q0 39 27 67t67 27h33l168 -18h72z" />
    <glyph glyph-name="K" unicode="K" horiz-adv-x="1628" 
d="M426 0h-188q-39 0 -67 29t-28 67v1243q0 39 28 68t67 29h188q39 0 67 -29t27 -68v-479h215q88 0 155 48t126 155l155 276q53 96 144 97h231q39 0 46 -28t-15 -69l-217 -393q-48 -86 -106 -142t-152 -79q66 -14 136 -83t122 -150l250 -398q24 -42 14 -68t-49 -26h-229
q-39 0 -84 28t-70 66l-176 279q-62 102 -126 153t-155 52h-215v-486q0 -40 -28 -66t-66 -26z" />
    <glyph glyph-name="L" unicode="L" horiz-adv-x="1505" 
d="M238 1434h188q39 0 67 -28t27 -69v-1054h871q39 0 67 -28t27 -67v-94q0 -38 -28 -66t-66 -28h-1153q-39 0 -67 27t-28 65v1245q0 41 28 69t67 28z" />
    <glyph glyph-name="M" unicode="M" horiz-adv-x="2117" 
d="M1130 0h-143q-39 0 -74 27t-49 63l-352 983v-977q0 -40 -28 -68t-66 -28h-180q-39 0 -67 28t-28 68v1241q0 41 27 69t66 28h407q39 0 74 -28t47 -67l295 -854l295 854q12 39 47 67t74 28h407q39 0 66 -28t26 -69v-1241q0 -40 -28 -68t-66 -28h-180q-39 0 -67 28t-27 68
v977l-353 -983q-14 -38 -49 -64t-74 -26z" />
    <glyph glyph-name="N" unicode="N" horiz-adv-x="1775" 
d="M414 0h-176q-39 0 -67 28t-28 66v1245q0 39 27 67t66 28h294q35 0 74 -28t64 -67l604 -929v931q0 39 27 66q28 27 67 27h172q39 0 67 -27t27 -68v-1245q0 -38 -28 -66t-66 -28h-332q-39 0 -80 28t-65 66l-553 858v-858q0 -38 -28 -66t-66 -28z" />
    <glyph glyph-name="O" unicode="O" horiz-adv-x="1732" 
d="M61 717q0 389 205 568t600 179t600 -179t205 -568t-205 -569t-600 -179q-395 -1 -600 179t-205 569zM866 1194q-225 0 -326 -120q-102 -120 -102 -358t102 -357t326 -119q225 0 327 119q101 120 101 358q0 237 -102 357t-326 120z" />
    <glyph glyph-name="P" unicode="P" horiz-adv-x="1644" 
d="M236 1434h763q604 0 605 -557q0 -557 -605 -558h-479v-225q0 -38 -28 -66t-66 -28h-188q-39 0 -67 28t-28 66v1245q0 39 27 67t66 28zM885 1151h-365v-549h365q168 0 255 56t87 218t-87 219q-87 56 -255 56z" />
    <glyph glyph-name="Q" unicode="Q" horiz-adv-x="1728" 
d="M1294 748q0 226 -102 336t-325 110q-224 0 -326 -119q-103 -119 -103 -348t102 -348t326 -119q428 0 428 488zM61 727q0 381 205 559t602 178t600 -169t203 -547q0 -203 -78 -326q-58 -94 -118 -162h159q41 0 68 -28t27 -66v-82q0 -39 -27 -67t-68 -27h-768
q-395 0 -600 178t-205 559z" />
    <glyph glyph-name="R" unicode="R" horiz-adv-x="1654" 
d="M946 1151h-426v-344h426q102 0 181 41t79 131t-79 131t-181 41zM764 524h-244v-430q0 -38 -28 -66t-66 -28h-188q-39 0 -67 28t-28 66v1245q0 39 27 67t66 28h825q229 0 375 -123t147 -332q0 -291 -377 -365q59 -23 111 -75q51 -53 117 -156l182 -289q24 -42 14 -68
t-49 -26h-240q-39 0 -84 28t-69 66l-170 266q-104 164 -254 164z" />
    <glyph glyph-name="S" unicode="S" horiz-adv-x="1595" 
d="M74 1024q0 202 143 310t492 108h254q205 0 369 -106t165 -263q0 -59 -35 -85t-67 -25h-119q-90 0 -137 98t-211 98h-301q-176 0 -176 -115q-1 -63 111 -103t272 -71q160 -32 318 -74t270 -140t112 -246q0 -201 -143 -310t-492 -108h-303q-205 0 -370 105t-165 263
q0 59 35 85t68 26h119q90 0 137 -98t211 -99h350q176 0 176 115q0 88 -215 137q-96 24 -212 46t-230 56t-211 80q-95 46 -155 126t-60 190z" />
    <glyph glyph-name="T" unicode="T" horiz-adv-x="1499" 
d="M115 1434h1269q41 0 68 -27t27 -68v-94q0 -41 -27 -67t-68 -27h-446v-1059q0 -40 -28 -66t-66 -26h-189q-39 0 -67 27t-27 65v1059h-446q-41 0 -68 27t-27 67v94q0 41 27 68t68 27z" />
    <glyph glyph-name="U" unicode="U" horiz-adv-x="1687" 
d="M764 274h160q136 0 200 72t64 219v774q0 39 27 67q28 28 67 28h186q41 0 69 -28t28 -67v-772q0 -274 -161 -425t-470 -150h-180q-309 0 -470 150t-161 425v772q0 39 28 67t68 28h187q38 0 66 -28t28 -67v-774q0 -147 64 -219t200 -72z" />
    <glyph glyph-name="V" unicode="V" horiz-adv-x="1634" 
d="M889 0h-144q-96 0 -143 102l-575 1248q-13 32 9 58t56 26h219q78 0 119 -95l387 -862l387 862q41 94 119 95h219q36 0 58 -27t8 -57l-576 -1248q-47 -102 -143 -102z" />
    <glyph glyph-name="W" unicode="W" horiz-adv-x="2293" 
d="M1055 1434h184q90 0 119 -95l244 -792l264 792q14 41 47 68t72 27h219q34 0 56 -26t9 -58l-446 -1248q-37 -102 -144 -102h-145q-111 0 -143 102l-244 770l-244 -770q-33 -102 -143 -102h-146q-106 0 -143 102l-446 1248q-13 32 9 58t56 26h219q39 0 72 -27t47 -68
l264 -792l244 792q29 95 119 95z" />
    <glyph glyph-name="X" unicode="X" horiz-adv-x="1536" 
d="M1432 1434q41 0 52 -29t-18 -66l-475 -602l504 -643q29 -38 17 -66t-52 -28h-213q-100 0 -174 94l-305 389l-305 -389q-74 -94 -174 -94h-213q-41 0 -52 29t17 65l504 643l-475 602q-29 37 -18 66t52 29h215q101 -1 175 -95l274 -348l274 348q74 94 175 95h215z" />
    <glyph glyph-name="Y" unicode="Y" horiz-adv-x="1519" 
d="M571 92v420l-534 827q-25 35 -15 65t50 30h190q113 0 174 -95l324 -499l323 499q61 94 174 95h191q39 0 49 -30t-14 -65l-535 -827v-420q0 -40 -28 -66t-66 -26h-188q-39 0 -67 26t-28 66z" />
    <glyph glyph-name="Z" unicode="Z" horiz-adv-x="1468" 
d="M145 1434h1168q39 0 67 -27t27 -68v-112q0 -41 -17 -79q-16 -38 -32 -54l-45 -45l-787 -766h797q41 0 68 -27t26 -68v-94q-1 -42 -27 -68t-67 -26h-1161q-39 0 -67 27t-27 67v111q0 96 94 190l762 756h-779q-39 0 -67 27t-27 67v94q-1 41 27 68t67 27z" />
    <glyph glyph-name="bracketleft" unicode="[" horiz-adv-x="796" 
d="M469 -35h246q27 0 44 -17t17 -44v-109q0 -27 -17 -44t-44 -17h-510q-27 0 -44 17t-18 44v1659q-1 27 17 44t45 18h510q27 0 44 -18t17 -44v-108q0 -27 -17 -44t-44 -18h-246v-1319z" />
    <glyph glyph-name="backslash" unicode="\" horiz-adv-x="1054" 
d="M49 1434h168q127 0 174 -95l649 -1245q20 -38 12 -66t-46 -28h-168q-127 0 -174 94l-650 1245q-20 37 -11 66t46 29z" />
    <glyph glyph-name="bracketright" unicode="]" horiz-adv-x="796" 
d="M82 -35h246v1319h-246q-27 0 -44 18t-18 44v108q0 27 18 44t44 18h510q27 0 44 -18t17 -44v-1659q0 -27 -17 -44t-44 -17h-510q-27 0 -44 17t-18 44v109q0 27 18 44t44 17z" />
    <glyph glyph-name="asciicircum" unicode="^" horiz-adv-x="1089" 
d="M471 1434h147q76 0 136 -88l321 -486q23 -32 9 -60t-50 -28h-157q-78 0 -134 84l-198 299l-199 -299q-55 -84 -133 -84h-158q-37 0 -50 28t9 60l322 486q59 88 135 88z" />
    <glyph glyph-name="underscore" unicode="_" horiz-adv-x="819" 
d="M61 0h697q27 0 44 -17t17 -44v-119q0 -27 -17 -44t-44 -18h-697q-27 0 -44 18t-17 44v119q0 27 17 44t44 17z" />
    <glyph glyph-name="grave" unicode="`" horiz-adv-x="563" 
d="M174 1434h82q49 0 92 -34t60 -81l104 -324q43 -135 -92 -135h-39q-97 0 -158 115l-164 303q-35 70 -1 113t116 43z" />
    <glyph glyph-name="a" unicode="a" horiz-adv-x="1335" 
d="M646 889q-122 -1 -172 -61t-122 -60h-149q-27 0 -44 17t-18 44q0 287 545 287q238 0 382 -106t144 -330v-619q0 -27 -17 -44t-44 -17h-193q-27 0 -44 17t-17 44v31q-159 -112 -365 -112t-338 92t-133 260q1 168 133 258t341 90h331q0 117 -49 163t-171 46zM569 207
q154 0 297 90v156h-307q-71 0 -111 -34t-40 -88t42 -89t119 -35z" />
    <glyph glyph-name="b" unicode="b" horiz-adv-x="1355" 
d="M123 1372q0 27 17 44t44 18h224q27 0 44 -18t17 -44v-307q162 51 289 51q246 0 391 -146t145 -423q0 -567 -635 -567q-145 0 -301 32t-235 80v1280zM688 221q133 0 192 77q58 77 58 249t-57 250t-195 77q-88 1 -217 -40v-590q86 -23 219 -23z" />
    <glyph glyph-name="c" unicode="c" horiz-adv-x="1271" 
d="M686 874q-150 0 -209 -76q-59 -77 -59 -250t61 -250t214 -77t212 94q47 74 115 74h149q27 0 44 -17t18 -44q-1 -172 -149 -260t-428 -88t-437 144q-156 144 -156 424t155 424t431 144q277 0 425 -88t149 -260q1 -27 -17 -44t-45 -17h-149q-68 0 -115 73q-59 94 -209 94z
" />
    <glyph glyph-name="d" unicode="d" horiz-adv-x="1355" 
d="M551 -20q-209 0 -349 147t-140 421t144 422q146 146 392 146q127 0 289 -51v307q0 27 17 44t44 18h223q27 0 44 -18t18 -44v-1311q1 -27 -17 -44t-45 -17h-192q-27 0 -44 17t-17 44v31q-158 -112 -367 -112zM634 221q108 0 253 90v523q-129 41 -217 40q-137 0 -195 -77
q-57 -78 -57 -249t54 -249t162 -78z" />
    <glyph glyph-name="e" unicode="e" horiz-adv-x="1290" 
d="M645 889q-221 0 -233 -236h465q-11 236 -232 236zM1167 442h-753q10 -123 70 -179t194 -56t182 60q49 60 121 61h149q26 0 44 -18t18 -44q0 -287 -547 -286q-276 0 -430 146t-154 420t155 422t430 148t429 -143t154 -412v-57q1 -26 -17 -44t-45 -18z" />
    <glyph glyph-name="f" unicode="f" horiz-adv-x="983" 
d="M469 942v-16h362q27 0 45 -18t17 -44v-119q0 -27 -17 -44t-45 -17h-362v-623q0 -27 -17 -44t-44 -17h-224q-27 0 -44 17t-17 44v881q0 280 127 396t422 116t335 -42q17 -17 17 -40v-110q0 -27 -17 -44t-44 -18h-37l-138 17q-199 1 -259 -53t-60 -222z" />
    <glyph glyph-name="g" unicode="g" horiz-adv-x="1335" 
d="M418 600q0 -274 231 -274q96 0 217 30v496q-86 23 -211 22q-237 0 -237 -274zM567 84q-227 0 -367 137t-139 380q0 243 159 379t456 136q145 0 301 -33t235 -79v-926q0 -224 -147 -330t-413 -106t-408 66q-143 66 -144 220q0 27 18 44t44 18h149q72 0 121 -60
q50 -60 190 -61q140 0 192 46t52 163v47q-160 -41 -299 -41z" />
    <glyph glyph-name="h" unicode="h" horiz-adv-x="1396" 
d="M928 61v574q0 240 -191 239q-125 0 -268 -143v-670q0 -27 -17 -44t-44 -17h-224q-27 0 -44 17t-17 44v1311q0 27 17 44t44 18h224q27 0 44 -18t17 -44v-401q173 145 367 145t316 -119t122 -362v-574q0 -27 -18 -44t-44 -17h-223q-27 0 -44 17t-17 44z" />
    <glyph glyph-name="i" unicode="i" horiz-adv-x="600" 
d="M123 1305v34q0 53 31 84t84 31h124q53 0 84 -31t31 -84v-34q0 -53 -31 -84t-84 -31h-124q-53 0 -84 31t-31 84zM412 0h-224q-27 0 -44 17t-17 44v949q0 27 17 44t44 17h224q27 0 44 -17t17 -44v-949q0 -27 -17 -44t-44 -17z" />
    <glyph glyph-name="j" unicode="j" horiz-adv-x="616" 
d="M139 1305v34q0 53 31 84t84 31h125q53 0 84 -31t31 -84v-34q0 -53 -31 -84t-84 -31h-125q-53 0 -84 31t-31 84zM143 113v897q-1 27 17 44t45 17h223q27 0 44 -17t17 -44v-897q0 -471 -387 -471q-137 0 -225 20q-61 14 -61 62v108q0 27 17 44t44 18h31l102 -15q55 0 94 55
t39 179z" />
    <glyph glyph-name="k" unicode="k" horiz-adv-x="1249" 
d="M469 1372v-710q174 0 238 135l96 204q20 43 59 69t84 26h189q78 0 34 -95l-129 -272q-33 -68 -90 -117t-123 -63q123 -37 213 -180l170 -275q25 -42 15 -68t-49 -26h-189q-96 0 -153 94l-127 207q-82 133 -238 133v-373q0 -27 -17 -44t-44 -17h-224q-27 0 -44 17t-17 44
v1311q0 27 17 44t44 18h224q27 0 44 -18t17 -44z" />
    <glyph glyph-name="l" unicode="l" horiz-adv-x="591" 
d="M408 0h-224q-27 0 -44 17t-17 44v1311q0 27 17 44t44 18h224q27 0 44 -18t17 -44v-1311q0 -27 -17 -44t-44 -17z" />
    <glyph glyph-name="m" unicode="m" horiz-adv-x="2058" 
d="M856 61v574q0 240 -174 239q-111 0 -213 -143v-670q0 -27 -17 -44t-44 -17h-224q-27 0 -44 17t-17 44v973q0 27 17 44t44 18h224q27 0 44 -18t17 -44v-63q71 69 141 107t168 38q233 0 352 -192q186 192 382 192t310 -118t113 -363v-574q0 -27 -17 -44t-44 -17h-223
q-27 0 -44 17t-18 44v574q0 240 -174 239q-106 0 -219 -153q6 -43 6 -86v-574q0 -27 -17 -44t-44 -17h-223q-27 0 -45 17q-17 17 -17 44z" />
    <glyph glyph-name="n" unicode="n" horiz-adv-x="1396" 
d="M928 61v574q0 240 -191 239q-125 0 -268 -143v-670q0 -27 -17 -44t-44 -17h-224q-27 0 -44 17t-17 44v973q0 27 17 44t44 18h224q27 0 44 -18t17 -44v-63q173 145 367 145t316 -119t122 -362v-574q0 -27 -18 -44t-44 -17h-223q-27 0 -44 17t-17 44z" />
    <glyph glyph-name="o" unicode="o" horiz-adv-x="1331" 
d="M666 1116q292 0 448 -143t156 -424t-156 -425t-448 -144t-449 144q-156 144 -156 425t156 424t449 143zM666 207q133 0 195 82t63 260q0 178 -62 259t-196 81t-196 -81t-62 -259t62 -260t196 -82z" />
    <glyph glyph-name="p" unicode="p" horiz-adv-x="1355" 
d="M804 1116q210 0 350 -147t140 -421t-145 -422q-145 -146 -391 -146q-127 0 -289 51v-307q0 -26 -17 -44t-44 -18h-224q-27 0 -44 17t-17 45v1310q0 27 17 44t44 18h193q27 0 44 -18t17 -44v-30q157 112 366 112zM938 548q0 170 -54 248t-162 78t-253 -90v-522
q129 -41 217 -41q137 0 195 78q57 78 57 249z" />
    <glyph glyph-name="q" unicode="q" horiz-adv-x="1355" 
d="M696 1116q145 0 301 -33t236 -79v-1280q1 -26 -17 -44t-45 -18h-223q-27 0 -44 17t-17 45v307q-162 -51 -289 -51q-246 0 -391 146t-146 423q0 567 635 567zM668 874q-133 0 -192 -76q-58 -77 -58 -249t57 -250t195 -78q88 0 217 41v590q-86 22 -219 22z" />
    <glyph glyph-name="r" unicode="r" horiz-adv-x="995" 
d="M469 61q0 -27 -17 -44t-44 -17h-224q-27 0 -44 17t-17 44v973q0 27 17 44t44 18h224q27 0 44 -18t17 -44v-63q103 73 197 109t247 36q27 0 45 -17t17 -44v-152q1 -27 -17 -44t-45 -17h-32l-154 6q-135 0 -258 -148v-639z" />
    <glyph glyph-name="s" unicode="s" horiz-adv-x="1224" 
d="M1163 303q0 -166 -148 -245t-403 -78q-549 0 -549 286q-1 27 17 44t45 18h149q72 0 121 -61t193 -60q229 0 229 96q0 45 -78 75q-77 30 -189 54t-222 58t-189 111q-78 77 -78 192q-1 163 143 243t378 80q549 0 548 -287q0 -27 -17 -44t-44 -17h-149q-72 0 -121 60
t-193 61q-199 0 -198 -96q0 -45 78 -75t189 -52q113 -22 223 -58t188 -112t77 -193z" />
    <glyph glyph-name="t" unicode="t" horiz-adv-x="921" 
d="M819 229q27 0 44 -17t18 -44v-107q1 -23 -17 -40q-42 -41 -311 -41q-430 0 -430 450v942q0 27 17 44t44 18h224q27 0 44 -18t17 -44v-334h279q27 0 44 -17t17 -44v-119q0 -27 -17 -44t-44 -17h-279v-367q0 -102 48 -158t128 -55l137 12h37z" />
    <glyph glyph-name="u" unicode="u" horiz-adv-x="1396" 
d="M469 1034v-573q0 -240 190 -240q125 0 269 144v669q0 27 17 44t44 18h223q27 0 44 -18t18 -44v-973q0 -27 -18 -44t-44 -17h-223q-27 0 -44 17t-17 44v64q-172 -145 -366 -145t-317 118q-122 118 -122 363v573q0 27 17 44t44 18h224q27 0 44 -18t17 -44z" />
    <glyph glyph-name="v" unicode="v" horiz-adv-x="1343" 
d="M745 0h-147q-41 0 -79 25t-56 63l-432 920q-16 36 -5 62t46 26h192q43 0 81 -25t54 -63l273 -623l272 623q16 40 54 64t81 24h193q35 0 46 -26t-5 -62l-432 -920q-19 -40 -57 -64t-79 -24z" />
    <glyph glyph-name="w" unicode="w" horiz-adv-x="1839" 
d="M831 1096h177q88 0 114 -88l162 -539l164 539q14 40 51 64t84 24h186q70 0 41 -88l-303 -920q-14 -40 -50 -64t-77 -24h-141q-41 0 -78 25t-49 63l-192 596l-193 -596q-12 -40 -49 -64t-78 -24h-141q-41 0 -77 24t-50 64l-303 920q-29 88 41 88h186q47 0 84 -24t51 -64
l164 -539l162 539q26 88 114 88z" />
    <glyph glyph-name="x" unicode="x" horiz-adv-x="1277" 
d="M961 1096h217q22 0 34 -14q25 -32 -4 -74l-325 -459l348 -461q23 -28 13 -58t-44 -30h-213q-92 0 -156 88l-192 260l-193 -260q-63 -88 -155 -88h-213q-35 0 -44 31t13 57l348 461l-325 459q-31 44 -4 73q12 14 34 15h217q97 0 156 -88l166 -252l166 252q59 88 156 88z
" />
    <glyph glyph-name="y" unicode="y" horiz-adv-x="1294" 
d="M291 1096q29 0 55 -20t35 -48l131 -424q49 -156 99 -216t120 -60l199 700q8 29 32 48t52 20h211q25 0 39 -18t8 -42l-262 -934q-70 -248 -173 -354t-267 -106q-276 0 -315 42q-17 17 -17 40v110q0 27 17 44t44 18h37l131 -17q141 0 197 207q-170 0 -284 102t-196 365
l-149 483q-8 23 7 41t40 19h209z" />
    <glyph glyph-name="z" unicode="z" horiz-adv-x="1144" 
d="M1032 242q27 0 44 -18t18 -44v-119q0 -27 -18 -44t-44 -17h-919q-27 0 -44 17t-18 44v97q0 74 72 145l526 551h-536q-27 0 -44 17t-18 44v119q-1 27 17 44t45 18h911q27 0 44 -18t17 -44v-96q1 -73 -71 -145l-545 -551h563z" />
    <glyph glyph-name="braceleft" unicode="{" horiz-adv-x="862" 
d="M580 154q0 -86 47 -138t112 -51h41q27 0 44 -17t18 -44v-109q0 -27 -18 -44t-44 -17h-98q-190 0 -307 96t-117 301v248q0 53 -34 89t-81 36h-41q-27 0 -44 17t-17 44v119q0 27 17 44t44 17h41q47 0 81 36t34 89v248q0 205 117 301t307 97h98q27 0 44 -18t18 -44v-108
q0 -27 -18 -44t-44 -18h-41q-67 0 -113 -51t-46 -137v-195q0 -115 -63 -187t-163 -89q100 -18 162 -90t64 -187v-194z" />
    <glyph glyph-name="bar" unicode="|" horiz-adv-x="632" 
d="M428 -338h-223q-27 0 -44 17t-18 45v1648q-1 27 17 44t45 18h223q27 0 44 -18t17 -44v-1648q0 -26 -17 -44t-44 -18z" />
    <glyph glyph-name="braceright" unicode="}" horiz-adv-x="862" 
d="M283 901v195q0 86 -47 137t-113 51h-41q-27 0 -44 18t-18 44v108q0 27 18 44t44 18h98q190 0 307 -96t117 -302v-248q0 -53 34 -89t81 -36h41q27 0 44 -17t17 -44v-119q0 -27 -17 -44t-44 -17h-41q-47 0 -81 -36t-34 -89v-248q0 -205 -117 -301t-307 -96h-98
q-27 0 -44 17t-18 44v109q0 27 18 44t44 17h41q66 0 113 51t47 138v194q0 115 62 187q63 72 163 90q-100 18 -163 90q-62 72 -62 186z" />
    <glyph glyph-name="asciitilde" unicode="~" horiz-adv-x="1216" 
d="M1155 762q0 -135 -80 -210t-210 -75t-248 51q-119 52 -193 52t-119 -38t-94 -38h-98q-23 0 -37 14t-15 37q0 135 80 210t210 75t248 -52t193 -51q76 0 120 38t94 38h98q23 1 37 -15t14 -36z" />
    <glyph glyph-name="uni00A0" unicode="&#xa0;" 
d="M1188 639v491h-264q-98 0 -172 -54t-99 -146l-82 -291h617zM1479 1434q37 0 61 -28t25 -65v-30h-654q-217 0 -339 -94t-154 -222l-262 -995h-62q-39 0 -59 26t-10 66l251 952q102 389 664 390h539zM1188 518h-834l115 424q43 160 166 236t295 75h635v-1161q0 -40 -28 -66
t-67 -26h-188q-41 0 -68 27t-26 67v242h-690l-68 -242q-10 -42 -45 -68t-74 -26h-92l125 461h844v57z" />
    <glyph glyph-name="currency" unicode="&#xa4;" horiz-adv-x="1683" 
d="M20 625h1215q59 -23 115 -87q55 -65 125 -176l170 -268q25 -42 15 -68t-50 -26h-240q-39 0 -84 28t-69 66l-170 266q-104 164 -254 164h-244v-430q0 -38 -28 -66t-66 -28h-189q-38 0 -66 28t-28 66v434h-90q-27 0 -44 18t-18 44v35zM172 768v571q0 39 27 67t65 28h826
q227 0 374 -114t148 -300q0 -150 -104 -235t-273 -113h-1215v35q0 27 18 44t44 17h90zM975 1151h-426v-344h426q102 0 181 41t79 131t-79 131t-181 41z" />
    <glyph glyph-name="brokenbar" unicode="&#xa6;" horiz-adv-x="591" 
d="M408 614h-224q-27 0 -44 18t-17 44v696q0 27 17 44t44 18h224q27 0 44 -18t17 -44v-696q0 -26 -17 -44t-44 -18zM408 -338h-224q-27 0 -44 17t-17 45v696q0 27 17 44t44 17h224q27 0 44 -17t17 -44v-696q0 -26 -17 -44t-44 -18z" />
    <glyph glyph-name="section" unicode="&#xa7;" horiz-adv-x="1286" 
d="M428 588q0 -58 80 -95q82 -40 293 -104q57 31 57 119q0 40 -40 69q-66 47 -161 74q-95 28 -174 56q-55 -35 -55 -119zM102 1079q0 375 540 375t540 -287q0 -27 -18 -44t-44 -17h-149q-72 0 -121 60t-176 61q-127 0 -176 -32t-49 -95q0 -113 194 -160q194 -46 365 -126
q84 -40 140 -119t56 -187q0 -168 -121 -266q100 -94 101 -226q0 -374 -540 -374t-540 286q0 27 18 44t44 18h149q72 0 121 -60t176 -61q127 0 176 32q50 32 50 95q1 111 -196 159q-196 48 -363 127q-84 40 -141 118q-56 79 -56 188q0 168 121 264q-101 94 -101 227z" />
    <glyph glyph-name="copyright" unicode="&#xa9;" horiz-adv-x="1740" 
d="M1239 512q0 -225 -367 -225q-190 0 -290 93t-100 274q0 182 100 276t279 94t275 -57t97 -170q0 -15 -12 -27t-29 -12h-96q-43 0 -74 47q-37 61 -135 61t-136 -50t-38 -163t39 -161t138 -50q99 0 133 56t79 55h98q16 0 28 -12t11 -29zM870 72q266 0 413 157
q146 158 147 426q0 268 -146 426t-414 158q-266 0 -412 -158t-146 -426q0 -267 146 -425t412 -158zM870 -143q-372 0 -590 212q-218 213 -218 587t218 586t590 212t591 -212q218 -212 218 -587t-218 -587t-591 -211z" />
    <glyph glyph-name="guillemotleft" unicode="&#xab;" horiz-adv-x="1019" 
d="M492 537v49q0 41 38 92l205 262q35 45 82 45h123q31 1 37 -23t-16 -59l-209 -342l209 -342q23 -35 17 -59t-38 -23h-123q-47 0 -82 45l-205 262q-38 52 -38 93zM41 537v49q0 41 39 92l205 262q35 45 82 45h122q31 1 37 -23t-16 -59l-209 -342l209 -342q22 -35 16 -59
t-37 -23h-122q-47 0 -82 45l-205 262q-39 52 -39 93z" />
    <glyph glyph-name="logicalnot" unicode="&#xac;" 
d="M1188 639v491h-264q-98 0 -172 -54t-99 -146l-82 -291h617zM1479 1434q37 0 61 -28t25 -65v-30h-654q-217 0 -339 -94t-154 -222l-262 -995h-62q-39 0 -59 26t-10 66l251 952q102 389 664 390h539zM1188 518h-834l115 424q43 160 166 236t295 75h635v-1161q0 -40 -28 -66
t-67 -26h-188q-41 0 -68 27t-26 67v242h-690l-68 -242q-10 -42 -45 -68t-74 -26h-92l125 461h844v57z" />
    <glyph glyph-name="uni00AD" unicode="&#xad;" horiz-adv-x="958" 
d="M102 750h754q27 0 44 -18t18 -44v-119q0 -27 -18 -44t-44 -17h-754q-27 0 -44 17t-17 44v119q0 26 17 44t44 18z" />
    <glyph glyph-name="registered" unicode="&#xae;" horiz-adv-x="1740" 
d="M934 881h-223v-179h223q55 0 96 22t41 69t-41 67t-96 21zM840 557h-129v-221q-1 -20 -15 -34t-34 -15h-99q-20 0 -35 14q-14 14 -14 35v643q0 19 14 33t35 14h432q119 0 196 -63t77 -170q0 -152 -197 -189q53 -20 119 -119l96 -149q29 -49 -18 -49h-125q-51 0 -82 49
l-88 137q-55 84 -133 84zM870 72q266 0 413 157q146 158 147 426q0 268 -146 426t-414 158q-266 0 -412 -158t-146 -426q0 -267 146 -425t412 -158zM870 -143q-372 0 -590 212q-218 213 -218 587t218 586t590 212t591 -212q218 -212 218 -587t-218 -587t-591 -211z" />
    <glyph glyph-name="degree" unicode="&#xb0;" horiz-adv-x="819" 
d="M758 1122q0 -154 -100 -242t-248 -89q-150 0 -249 89q-99 88 -99 242t98 243q100 89 250 89t249 -89t99 -243zM545 1122q0 78 -37 122t-98 44q-60 0 -98 -44t-38 -122t37 -122t99 -44t98 44q37 44 37 122z" />
    <glyph glyph-name="plusminus" unicode="&#xb1;" horiz-adv-x="958" 
d="M102 414h250v182h-250q-27 0 -44 17t-17 44v119q0 27 17 44t44 18h250v249q0 27 18 45t44 17h118q26 0 44 -17t18 -45v-249h262q27 0 44 -18t18 -44v-119q0 -27 -18 -44t-44 -17h-262v-182h262q27 0 44 -18t18 -44v-119q0 -27 -18 -44t-44 -17h-754q-27 0 -44 17t-17 44
v119q0 26 17 44t44 18z" />
    <glyph glyph-name="mu" unicode="&#xb5;" horiz-adv-x="1396" 
d="M408 -338h-224q-27 0 -44 17t-17 45v1310q0 27 17 44t44 18h224q27 0 44 -18t17 -44v-542q0 -129 59 -200t142 -71q147 0 258 185v628q0 27 17 44t44 18h223q27 0 44 -18t18 -44v-973q0 -27 -18 -44t-44 -17h-223q-27 0 -44 17t-17 44v64q-68 -80 -122 -113t-130 -32
q-133 0 -207 71v-327q0 -26 -17 -44t-44 -18z" />
    <glyph glyph-name="paragraph" unicode="&#xb6;" horiz-adv-x="1437" 
d="M1335 1206h-90v-1450q-1 -38 -29 -66t-67 -28h-229v1544h-103v-1544h-231q-39 0 -67 28t-27 66v936q-184 0 -308 100t-123 273q0 174 123 271t308 98h843q27 0 44 -18t18 -44v-104q1 -26 -17 -44t-45 -18z" />
    <glyph glyph-name="periodcentered" unicode="&#xb7;" horiz-adv-x="802" 
d="M205 596v63q0 66 35 101t100 35h123q135 0 135 -136v-63q0 -63 -35 -99t-100 -36h-123q-66 0 -100 36t-35 99z" />
    <glyph glyph-name="guillemotright" unicode="&#xbb;" horiz-adv-x="1019" 
d="M528 586v-49q0 -41 -39 -93l-204 -262q-35 -45 -82 -45h-123q-31 0 -37 24t16 58l209 342l-209 342q-23 35 -17 59t38 23h123q47 0 82 -45l204 -262q39 -51 39 -92zM979 586v-49q0 -41 -39 -93l-205 -262q-35 -45 -82 -45h-123q-30 0 -36 24t16 58l209 342l-209 342
q-22 35 -16 59t36 23h123q47 0 82 -45l205 -262q39 -51 39 -92z" />
    <glyph glyph-name="afii10023" unicode="&#x401;" horiz-adv-x="1525" 
d="M897 1655v39q0 53 31 84t84 30h96q53 0 84 -30t31 -84v-39q0 -53 -31 -84t-84 -31h-96q-53 0 -84 31t-31 84zM395 1655v39q0 53 31 84t84 30h96q53 0 84 -30t31 -84v-39q0 -53 -31 -84t-84 -31h-96q-53 0 -84 31t-31 84zM1391 1434q39 0 67 -28t27 -67v-94q0 -39 -28 -67
t-66 -27h-871v-291h750q38 0 66 -28t28 -66v-94q0 -39 -28 -67t-66 -27h-750v-295h869q39 0 65 -27t27 -66v-96q0 -38 -28 -66t-67 -28h-1148q-39 0 -67 28t-28 68v1245q0 39 28 66t67 27h1153z" />
    <glyph glyph-name="afii10051" unicode="&#x402;" horiz-adv-x="1570" 
d="M1153 410v51q0 242 -258 241q-182 0 -305 -143v-465q0 -38 -28 -66t-66 -28h-187q-41 0 -69 28t-27 66v1061h-131q-27 0 -44 17t-18 45v155q0 27 18 44t44 18h639q27 0 44 -18t17 -44v-155q0 -27 -17 -45t-44 -17h-131v-295q146 125 382 125t397 -131t161 -393v-51
q0 -430 -416 -430q-164 0 -208 7q-77 12 -79 64v129q-1 27 17 44t45 18h31l102 -15q51 0 91 47t40 136z" />
    <glyph glyph-name="afii10052" unicode="&#x403;" horiz-adv-x="1318" 
d="M676 1516q-133 0 -92 135l80 264q14 47 58 81t93 34h82q82 0 117 -44t-2 -112l-140 -244q-66 -115 -157 -114h-39zM143 92v1247q0 41 27 68t68 27h966q41 0 68 -27t26 -68v-94q0 -41 -26 -67t-68 -27h-684v-1059q0 -40 -28 -66t-66 -26h-188q-39 0 -67 26t-28 66z" />
    <glyph glyph-name="afii10053" unicode="&#x404;" horiz-adv-x="1673" 
d="M803 1442h223q143 0 272 -47t216 -145t88 -228q0 -59 -35 -85t-68 -26h-119q-90 0 -143 111q-68 137 -246 137h-178q-190 -1 -274 -69t-95 -236h537q39 0 67 -28t27 -66v-84q1 -39 -27 -67t-67 -27h-537q8 -170 94 -239t275 -69h199q178 0 245 138q53 111 144 110h119
q48 0 76 -35t26 -75q0 -130 -87 -228t-216 -145t-272 -47h-244q-371 0 -556 177t-186 548t185 548t557 177z" />
    <glyph glyph-name="afii10054" unicode="&#x405;" horiz-adv-x="1595" 
d="M74 1024q0 202 143 310t492 108h254q205 0 369 -106t165 -263q0 -59 -35 -85t-67 -25h-119q-90 0 -137 98t-211 98h-301q-176 0 -176 -115q-1 -63 111 -103t272 -71q160 -32 318 -74t270 -140t112 -246q0 -201 -143 -310t-492 -108h-303q-205 0 -370 105t-165 263
q0 59 35 85t68 26h119q90 0 137 -98t211 -99h350q176 0 176 115q0 88 -215 137q-96 24 -212 46t-230 56t-211 80q-95 46 -155 126t-60 190z" />
    <glyph glyph-name="uni0406" unicode="&#x406;" horiz-adv-x="663" 
d="M143 92v1247q0 39 28 67t67 28h186q41 0 69 -28t27 -67v-1245q0 -38 -28 -66t-68 -28h-186q-39 0 -67 26t-28 66z" />
    <glyph glyph-name="afii10056" unicode="&#x407;" horiz-adv-x="663" 
d="M395 1655v39q0 53 31 84t84 30h80q53 0 84 -30t31 -84v-39q0 -53 -31 -84t-84 -31h-80q-53 0 -84 31t-31 84zM-41 1655v39q0 53 31 84t84 30h80q53 0 84 -30t30 -84v-39q0 -53 -30 -84t-84 -31h-80q-53 0 -84 31t-31 84zM143 92v1247q0 39 28 67t67 28h186q41 0 69 -28
t27 -67v-1245q0 -38 -28 -66t-68 -28h-186q-39 0 -67 26t-28 66z" />
    <glyph glyph-name="afii10057" unicode="&#x408;" horiz-adv-x="1130" 
d="M367 283q139 0 201 57t63 192v807q0 39 27 67q28 28 67 28h186q41 0 69 -28t28 -67v-804q0 -255 -170 -395t-461 -140h-283q-38 0 -66 28t-28 66v113q0 39 27 67t67 27h33l168 -18h72z" />
    <glyph glyph-name="afii10058" unicode="&#x409;" horiz-adv-x="2529" 
d="M1944 664h-449v-381h449q168 1 168 191t-168 190zM1495 946h449q236 0 390 -125t154 -348t-154 -348t-390 -125h-732q-38 0 -66 28t-28 66v1057h-213q-96 0 -168 -54t-96 -147l-229 -856q-10 -42 -45 -68t-74 -26h-203q-35 0 -54 26t-11 58l254 960q102 389 663 390h469
q35 0 59 -29t25 -66v-393z" />
    <glyph glyph-name="afii10059" unicode="&#x40a;" horiz-adv-x="2555" 
d="M1970 627h-450v-344h450q84 0 126 46t42 126t-42 126t-126 46zM1143 92v535h-623v-535q0 -40 -28 -66t-66 -26h-186q-39 0 -68 28t-29 66v1245q0 39 28 67t69 28h186q39 0 67 -28t27 -67v-430h623v430q0 39 27 67q28 28 67 28h186q41 0 69 -28t28 -67v-430h450
q233 0 389 -122q156 -123 156 -333t-156 -332t-389 -122h-733q-39 0 -67 26t-27 66z" />
    <glyph glyph-name="afii10060" unicode="&#x40b;" horiz-adv-x="1591" 
d="M590 94q0 -38 -28 -66t-66 -28h-187q-41 0 -69 28t-27 66v1061h-131q-27 0 -44 17t-18 45v155q0 27 18 44t44 18h639q27 0 44 -18t17 -44v-155q0 -27 -17 -45t-44 -17h-131v-295q146 125 382 125t397 -131t161 -393v-367q0 -38 -29 -66t-67 -28h-187q-39 0 -67 28t-27 66
v367q0 242 -258 241q-182 0 -305 -143v-465z" />
    <glyph glyph-name="afii10061" unicode="&#x40c;" horiz-adv-x="1628" 
d="M809 1475q-133 0 -92 135l80 264q14 47 58 81t93 34h82q82 0 117 -44t-2 -112l-139 -244q-66 -115 -158 -114h-39zM426 0h-188q-39 0 -67 29t-28 67v1243q0 39 28 68t67 29h188q39 0 67 -29t27 -68v-479h215q88 0 155 48t126 155l155 276q53 96 144 97h231q39 0 46 -28
t-15 -69l-217 -393q-48 -86 -106 -142t-152 -79q66 -14 136 -83t122 -150l250 -398q24 -42 14 -68t-49 -26h-229q-39 0 -84 28t-70 66l-176 279q-62 102 -126 153t-155 52h-215v-486q0 -40 -28 -66t-66 -26z" />
    <glyph glyph-name="afii10062" unicode="&#x40e;" horiz-adv-x="1595" 
d="M834 1731q100 0 129 71q20 51 69 51h82q55 0 55 -51q0 -137 -92 -217q-91 -80 -243 -80t-244 80t-92 217q0 51 55 51h82q49 0 70 -51q29 -71 129 -71zM635 283q199 0 272 260h-86q-252 0 -393 102t-242 334l-157 360q-16 39 0 67t55 28h211q96 0 133 -91l115 -278
q51 -121 128 -180t203 -60h123l181 516q14 43 49 68t76 25h202q39 0 57 -27t7 -64l-326 -933q-68 -198 -205 -304t-383 -106h-241q-39 0 -67 28t-28 66v113q0 39 27 67t68 27h32l168 -18h21z" />
    <glyph glyph-name="afii10145" unicode="&#x40f;" horiz-adv-x="1771" 
d="M1346 1434h186q40 0 68 -28t28 -67v-1245q0 -38 -28 -66t-66 -28h-479v-274q0 -39 -29 -67t-68 -28h-147q-39 0 -67 28t-27 67v274h-481q-39 0 -66 28t-27 66v1245q0 39 28 67t67 28h188q39 0 67 -28t27 -67v-1056h731v1056q0 39 28 67t67 28z" />
    <glyph glyph-name="afii10017" unicode="&#x410;" 
d="M1188 629v522h-285q-96 0 -168 -54q-71 -55 -96 -147l-88 -321h637zM1479 1434q37 0 61 -28t25 -65v-1249q0 -40 -28 -66t-67 -26h-188q-41 0 -68 27t-26 67v252h-711l-67 -252q-10 -42 -45 -68t-74 -26h-197q-39 0 -59 26t-10 66l251 952q102 389 664 390h539z" />
    <glyph glyph-name="afii10018" unicode="&#x411;" horiz-adv-x="1619" 
d="M520 909h494q244 -1 394 -115t151 -339q0 -225 -151 -340t-394 -115h-781q-39 0 -65 27t-25 65v1247q0 41 27 68t68 27h1126q39 0 67 -28t27 -67v-94q0 -39 -26 -67t-66 -27h-846v-242zM1014 627h-494v-344h494q168 0 168 172t-168 172z" />
    <glyph glyph-name="afii10019" unicode="&#x412;" horiz-adv-x="1689" 
d="M1092 614h-572v-344h572q78 0 118 46t41 126q-1 80 -41 126t-118 46zM1055 1163h-535v-286h535q63 -1 101 37t38 106t-38 106t-101 37zM143 94v1245q0 39 28 67t67 28h813q299 0 441 -171q79 -95 79 -243t-135 -258q193 -102 192 -332q0 -206 -154 -318t-376 -112h-860
q-39 0 -67 28t-28 66z" />
    <glyph glyph-name="afii10020" unicode="&#x413;" horiz-adv-x="1318" 
d="M143 92v1247q0 41 27 68t68 27h966q41 0 68 -27t26 -68v-94q0 -41 -26 -67t-68 -27h-684v-1059q0 -40 -28 -66t-66 -26h-188q-39 0 -67 26t-28 66z" />
    <glyph glyph-name="afii10021" unicode="&#x414;" horiz-adv-x="1785" 
d="M1266 283v868h-299q-94 0 -157 -52q-62 -53 -85 -145l-168 -671h709zM1548 1434q39 0 67 -27t27 -66v-1249q0 -40 -28 -66t-66 -26h-1454q-38 0 -66 28t-28 66v96q0 39 28 66t66 27h78l186 757q96 393 650 394h540z" />
    <glyph glyph-name="afii10022" unicode="&#x415;" horiz-adv-x="1525" 
d="M1391 1434q39 0 67 -28t27 -67v-94q0 -39 -28 -67t-66 -27h-871v-291h750q38 0 66 -28t28 -66v-94q0 -39 -28 -67t-66 -27h-750v-295h869q39 0 65 -27t27 -66v-96q0 -38 -28 -66t-67 -28h-1148q-39 0 -67 28t-28 68v1245q0 39 28 66t67 27h1153z" />
    <glyph glyph-name="afii10024" unicode="&#x416;" horiz-adv-x="2252" 
d="M1221 0h-189q-38 0 -66 27t-28 65v486h-45q-89 0 -153 -52t-128 -153l-176 -279q-26 -38 -70 -66t-83 -28h-230q-39 0 -49 27t14 67l250 398q53 82 123 150t135 83q-94 23 -152 79t-106 142l-217 393q-23 41 -15 69t46 28h231q90 0 144 -97l155 -276q59 -107 126 -155
t155 -48h45v479q0 39 28 68t66 29h189q39 0 67 -29t27 -68v-479h45q88 0 154 48t126 155l156 276q53 96 143 97h232q39 0 46 -28t-15 -69l-217 -393q-47 -86 -105 -142t-154 -79q66 -14 136 -83t123 -150l249 -398q25 -42 15 -68t-49 -26h-230q-39 0 -84 28t-69 66l-177 279
q-62 102 -126 153t-154 52h-45v-486q1 -40 -27 -66t-67 -26z" />
    <glyph glyph-name="afii10025" unicode="&#x417;" horiz-adv-x="1599" 
d="M907 1159h-243q-162 0 -224 -123q-45 -94 -135 -94h-119q-48 0 -76 35t-26 76q0 169 172 279t373 110h307q582 0 582 -438q0 -182 -138 -287q158 -98 158 -289q0 -232 -144 -334t-415 -102h-383q-203 0 -374 112t-171 287q0 59 35 85t68 26h118q92 0 144 -111
q25 -53 84 -85t131 -32h313q109 0 163 35t54 119t-54 119t-163 35h-258q-38 0 -66 28t-28 66v82q0 38 26 66t64 28h225q121 0 177 36t57 118q-1 82 -57 118t-177 35z" />
    <glyph glyph-name="afii10026" unicode="&#x418;" horiz-adv-x="1744" 
d="M1507 0h-176q-39 0 -67 28t-27 66v928l-522 -928q-23 -38 -65 -66t-81 -28h-331q-39 0 -67 28t-28 66v1245q0 41 27 68t68 27h176q38 0 66 -27t28 -66v-1001l569 999q23 39 63 67t74 28h295q39 0 66 -28t27 -67v-1245q0 -38 -28 -66t-67 -28z" />
    <glyph glyph-name="afii10027" unicode="&#x419;" horiz-adv-x="1744" 
d="M1507 0h-176q-39 0 -67 28t-27 66v928l-522 -928q-23 -38 -65 -66t-81 -28h-331q-39 0 -67 28t-28 66v1245q0 41 27 68t68 27h176q38 0 66 -27t28 -66v-1001l569 999q23 39 63 67t74 28h295q39 0 66 -28t27 -67v-1245q0 -38 -28 -66t-67 -28zM872 1772q100 0 129 71
q20 51 70 51h82q55 0 55 -51q0 -137 -92 -217t-244 -80t-244 80t-91 217q0 51 55 51h82q49 0 69 -51q29 -71 129 -71z" />
    <glyph glyph-name="afii10028" unicode="&#x41a;" horiz-adv-x="1628" 
d="M426 0h-188q-39 0 -67 29t-28 67v1243q0 39 28 68t67 29h188q39 0 67 -29t27 -68v-479h215q88 0 155 48t126 155l155 276q53 96 144 97h231q39 0 46 -28t-15 -69l-217 -393q-48 -86 -106 -142t-152 -79q66 -14 136 -83t122 -150l250 -398q24 -42 14 -68t-49 -26h-229
q-39 0 -84 28t-70 66l-176 279q-62 102 -126 153t-155 52h-215v-486q0 -40 -28 -66t-66 -26z" />
    <glyph glyph-name="afii10029" unicode="&#x41b;" horiz-adv-x="1669" 
d="M1526 94q0 -38 -27 -66t-65 -28h-191q-39 0 -67 28t-27 66v1057h-244q-96 0 -168 -54t-96 -147l-229 -856q-10 -42 -45 -68t-74 -26h-203q-35 0 -54 26t-11 58l254 960q102 389 663 390h500q36 0 60 -29t24 -66v-1245z" />
    <glyph glyph-name="afii10030" unicode="&#x41c;" horiz-adv-x="2117" 
d="M1130 0h-143q-39 0 -74 27t-49 63l-352 983v-977q0 -40 -28 -68t-66 -28h-180q-39 0 -67 28t-28 68v1241q0 41 27 69t66 28h407q39 0 74 -28t47 -67l295 -854l295 854q12 39 47 67t74 28h407q39 0 66 -28t26 -69v-1241q0 -40 -28 -68t-66 -28h-180q-39 0 -67 28t-27 68
v977l-353 -983q-14 -38 -49 -64t-74 -26z" />
    <glyph glyph-name="afii10031" unicode="&#x41d;" horiz-adv-x="1728" 
d="M1208 92v514h-688v-514q0 -40 -28 -66t-66 -26h-186q-39 0 -68 28t-29 66v1245q0 39 28 67t69 28h186q39 0 67 -28t27 -67v-450h688v450q0 39 28 67t67 28h186q41 0 69 -28t27 -67v-1245q0 -38 -29 -66t-67 -28h-186q-39 0 -67 26t-28 66z" />
    <glyph glyph-name="afii10032" unicode="&#x41e;" horiz-adv-x="1732" 
d="M61 717q0 389 205 568t600 179t600 -179t205 -568t-205 -569t-600 -179q-395 -1 -600 179t-205 569zM866 1194q-225 0 -326 -120q-102 -120 -102 -358t102 -357t326 -119q225 0 327 119q101 120 101 358q0 237 -102 357t-326 120z" />
    <glyph glyph-name="afii10033" unicode="&#x41f;" horiz-adv-x="1771" 
d="M1532 0h-186q-39 0 -67 28t-28 66v1057h-731v-1057q0 -38 -28 -66t-66 -28h-188q-39 0 -67 28t-28 66v1245q0 39 27 67t66 28h1298q39 0 67 -28t27 -67v-1245q0 -38 -28 -66t-68 -28z" />
    <glyph glyph-name="afii10034" unicode="&#x420;" horiz-adv-x="1644" 
d="M236 1434h763q604 0 605 -557q0 -557 -605 -558h-479v-225q0 -38 -28 -66t-66 -28h-188q-39 0 -67 28t-28 66v1245q0 39 27 67t66 28zM885 1151h-365v-549h365q168 0 255 56t87 218t-87 219q-87 56 -255 56z" />
    <glyph glyph-name="afii10035" unicode="&#x421;" horiz-adv-x="1673" 
d="M61 717q-1 371 185 548t557 177h223q227 0 401 -118t175 -323q0 -59 -35 -85t-68 -25h-119q-92 0 -143 110q-74 158 -246 158h-178q-219 0 -297 -94t-78 -348t78 -348t297 -95h199q172 0 245 158q51 111 144 111h119q48 0 76 -35t26 -76q0 -204 -174 -322t-401 -118h-244
q-371 0 -557 177t-185 548z" />
    <glyph glyph-name="afii10036" unicode="&#x422;" horiz-adv-x="1499" 
d="M115 1434h1269q41 0 68 -27t27 -68v-94q0 -41 -27 -67t-68 -27h-446v-1059q0 -40 -28 -66t-66 -26h-189q-39 0 -67 27t-27 65v1059h-446q-41 0 -68 27t-27 67v94q0 41 27 68t68 27z" />
    <glyph glyph-name="afii10037" unicode="&#x423;" horiz-adv-x="1595" 
d="M635 283q199 0 272 260h-86q-252 0 -393 102t-242 334l-157 360q-16 39 0 67t55 28h211q96 0 133 -91l115 -278q51 -121 128 -180t203 -60h123l181 516q14 43 49 68t76 25h202q39 0 57 -27t7 -64l-326 -933q-68 -198 -205 -304t-383 -106h-241q-39 0 -67 28t-28 66v113
q0 39 27 67t68 27h32l168 -18h21z" />
    <glyph glyph-name="afii10038" unicode="&#x424;" horiz-adv-x="1949" 
d="M797 399v635q-175 0 -277 -79t-102 -239t102 -238q102 -79 277 -79zM883 1497h184q41 0 69 -28t27 -66v-98q342 -1 544 -141t202 -447t-202 -447t-544 -141v-98q-1 -39 -29 -67t-67 -27h-184q-39 -1 -68 27t-29 67v98q-342 0 -544 140q-202 139 -201 447q0 308 202 448
t543 141v98q0 39 28 67t69 27zM1153 1034v-635q176 0 278 79q101 79 101 239q0 161 -102 239t-277 78z" />
    <glyph glyph-name="afii10039" unicode="&#x425;" horiz-adv-x="1536" 
d="M1432 1434q41 0 52 -29t-18 -66l-475 -602l504 -643q29 -38 17 -66t-52 -28h-213q-100 0 -174 94l-305 389l-305 -389q-74 -94 -174 -94h-213q-41 0 -52 29t17 65l504 643l-475 602q-29 37 -18 66t52 29h215q101 -1 175 -95l274 -348l274 348q74 94 175 95h215z" />
    <glyph glyph-name="afii10040" unicode="&#x426;" horiz-adv-x="1771" 
d="M1677 0h-1439q-39 0 -67 28t-28 66v1247q0 39 28 66t67 27h188q39 0 67 -28t27 -67v-1056h672v1058q0 39 28 66t66 27h189q39 0 67 -28t27 -67v-1056h108q39 0 67 -28t28 -67v-94q0 -38 -28 -66t-67 -28z" />
    <glyph glyph-name="afii10041" unicode="&#x427;" horiz-adv-x="1607" 
d="M82 1004v335q0 39 29 67t67 28h187q39 0 67 -28t27 -67v-335q0 -242 241 -242h387v577q0 39 28 67t67 28h186q41 0 69 -28t27 -67v-1245q0 -38 -28 -66t-68 -28h-186q-39 0 -67 27t-28 65v387h-387q-286 1 -452 131t-166 394z" />
    <glyph glyph-name="afii10042" unicode="&#x428;" horiz-adv-x="2293" 
d="M958 283v1058q0 39 28 66t67 27h188q39 0 67 -28t27 -67v-1056h439v1058q0 39 27 66q28 27 67 27h188q39 0 67 -28t27 -67v-1245q0 -38 -28 -66t-66 -28h-1818q-39 0 -67 28t-28 66v1245q0 39 28 67t67 28h188q39 0 67 -27t27 -66v-1058h438z" />
    <glyph glyph-name="afii10043" unicode="&#x429;" horiz-adv-x="2353" 
d="M2259 0h-2021q-39 0 -67 28t-28 66v1245q0 39 28 67t67 28h188q39 0 67 -27t27 -66v-1058h438v1058q0 39 28 66t67 27h188q39 0 67 -28t27 -67v-1056h439v1058q0 39 27 66q28 27 67 27h188q39 0 67 -28t27 -67v-1056h109q39 0 67 -28t27 -67v-94q1 -38 -27 -66t-67 -28z
" />
    <glyph glyph-name="afii10044" unicode="&#x42a;" horiz-adv-x="1792" 
d="M356 1151h-262q-38 0 -66 28t-28 66v94q0 39 28 67t66 28h545q39 0 67 -28t27 -67v-393h473q236 0 390 -125t155 -348q0 -223 -155 -348t-390 -125h-760q-38 0 -64 29t-26 67v1055zM1206 664h-473v-381h473q168 1 168 191t-168 190z" />
    <glyph glyph-name="afii10045" unicode="&#x42b;" horiz-adv-x="2201" 
d="M1677 92v1247q0 39 28 67t67 28h190q41 0 69 -28t27 -67v-1245q0 -38 -28 -66t-68 -28h-190q-39 0 -67 26t-28 66zM520 946h412q236 0 390 -125t155 -348q0 -223 -155 -348t-390 -125h-699q-37 0 -63 29t-27 67v1243q0 41 27 68t68 27h188q39 0 67 -28t27 -67v-393z
M932 664h-412v-381h412q168 1 168 191t-168 190z" />
    <glyph glyph-name="afii10046" unicode="&#x42c;" horiz-adv-x="1599" 
d="M520 946h494q236 0 390 -125t155 -348q0 -223 -155 -348t-390 -125h-781q-37 0 -63 29t-27 67v1243q0 41 27 68t68 27h188q39 0 67 -28t27 -67v-393zM1014 664h-494v-381h494q168 1 168 191t-168 190z" />
    <glyph glyph-name="afii10047" unicode="&#x42d;" horiz-adv-x="1673" 
d="M647 1442h223q371 0 556 -177q186 -177 186 -548t-186 -548t-556 -177h-243q-143 0 -273 47t-216 145q-87 98 -87 228q0 59 35 85t68 25h118q90 0 144 -110q68 -137 246 -138h198q190 0 276 69q85 69 93 239h-537q-38 0 -66 28t-28 66v84q0 38 28 66t66 28h537
q-10 168 -94 237t-275 68h-178q-178 0 -246 -137q-53 -111 -143 -111h-119q-47 0 -75 35t-27 76q0 129 87 227q87 97 216 145t272 48z" />
    <glyph glyph-name="afii10048" unicode="&#x42e;" horiz-adv-x="2281" 
d="M1460 240q383 0 383 477t-383 477t-383 -477t383 -477zM1460 1464q760 0 760 -748t-760 -747q-700 0 -755 637h-181v-514q0 -40 -28 -66t-66 -26h-190q-39 0 -68 28t-29 66v1245q0 39 28 67t69 28h190q39 0 67 -28t27 -67v-448h187q83 573 749 573z" />
    <glyph glyph-name="afii10049" unicode="&#x42f;" horiz-adv-x="1628" 
d="M612 799h496v352h-496q-166 0 -166 -176t166 -176zM612 1434h783q37 0 63 -27t27 -66v-1249q0 -40 -28 -66t-66 -26h-189q-38 0 -66 28t-28 66v414h-358l-240 -416q-51 -92 -145 -92h-252q-33 0 -45 30t8 64l276 455q-283 123 -282 418q0 223 154 345q155 122 388 122z
" />
    <glyph glyph-name="afii10065" unicode="&#x430;" horiz-adv-x="1335" 
d="M646 889q-122 -1 -172 -61t-122 -60h-149q-27 0 -44 17t-18 44q0 287 545 287q238 0 382 -106t144 -330v-619q0 -27 -17 -44t-44 -17h-193q-27 0 -44 17t-17 44v31q-159 -112 -365 -112t-338 92t-133 260q1 168 133 258t341 90h331q0 117 -49 163t-171 46zM569 207
q154 0 297 90v156h-307q-71 0 -111 -34t-40 -88t42 -89t119 -35z" />
    <glyph glyph-name="afii10066" unicode="&#x431;" horiz-adv-x="1316" 
d="M1266 469q0 -236 -154 -363t-448 -126q-602 0 -603 552v144q0 344 121 523t412 206l551 49q27 4 46 -11t19 -40v-131q0 -33 -22 -62t-51 -30l-420 -35q-209 -15 -294 -97t-85 -260q123 172 376 172q252 0 402 -127q150 -128 150 -364zM664 207q124 1 190 69t66 194
t-67 195t-189 69t-190 -70q-66 -68 -66 -194t66 -195q67 -68 190 -68z" />
    <glyph glyph-name="afii10067" unicode="&#x432;" horiz-adv-x="1312" 
d="M469 668h293q45 0 74 28t28 74q0 45 -28 74q-29 29 -74 28h-293v-204zM801 449h-332v-226h332q55 0 85 31t29 82q0 51 -29 82q-30 31 -85 31zM825 0h-641q-27 0 -44 17t-17 44v973q0 27 17 44t44 18h598q190 0 310 -74t118 -222q0 -148 -123 -225q175 -88 175 -261
q0 -174 -113 -244t-324 -70z" />
    <glyph glyph-name="afii10068" unicode="&#x433;" horiz-adv-x="1013" 
d="M932 854h-463v-793q0 -27 -17 -44t-44 -17h-224q-27 0 -44 17t-17 44v973q0 27 17 44t44 18h748q27 0 44 -18t17 -44v-119q0 -27 -17 -44t-44 -17z" />
    <glyph glyph-name="afii10069" unicode="&#x434;" horiz-adv-x="1437" 
d="M969 242v612h-181q-145 0 -184 -147l-117 -465h482zM1253 0h-1171q-27 0 -44 17t-18 44v119q0 27 18 44t44 18h78l137 551q76 303 502 303h454q27 0 44 -18t18 -44v-973q1 -27 -17 -44t-45 -17z" />
    <glyph glyph-name="afii10070" unicode="&#x435;" horiz-adv-x="1290" 
d="M645 889q-221 0 -233 -236h465q-11 236 -232 236zM1167 442h-753q10 -123 70 -179t194 -56t182 60q49 60 121 61h149q26 0 44 -18t18 -44q0 -287 -547 -286q-276 0 -430 146t-154 420t155 422t430 148t429 -143t154 -412v-57q1 -26 -17 -44t-45 -18z" />
    <glyph glyph-name="afii10072" unicode="&#x436;" horiz-adv-x="1783" 
d="M1004 0h-224q-27 0 -44 17t-17 44v373q-129 0 -197 -133l-106 -207q-49 -94 -154 -94h-188q-39 0 -48 27t13 67l149 275q80 150 213 180q-76 18 -131 67t-82 113l-108 272q-39 94 35 95h188q49 0 88 -26t55 -69l76 -204q51 -135 197 -135v372q0 27 17 44t44 18h224
q27 0 44 -18t17 -44v-372q145 0 197 135l75 204q15 43 55 69t89 26h188q74 0 35 -95l-109 -272q-27 -63 -82 -113t-131 -67q133 -31 213 -180l150 -275q23 -42 13 -68t-48 -26h-188q-104 0 -154 94l-106 207q-68 133 -197 133v-373q0 -27 -17 -44t-44 -17z" />
    <glyph glyph-name="afii10073" unicode="&#x437;" horiz-adv-x="1251" 
d="M506 207h203q145 0 145 119t-145 118h-248q-27 0 -44 18t-18 44v104q-1 27 17 44t45 18h229q66 0 100 30t33 78q0 49 -33 79q-34 30 -100 30h-184q-35 1 -72 -17t-55 -51q-39 -68 -107 -67h-149q-27 0 -44 17t-18 44q-1 135 131 218t318 83h201q211 0 335 -78t124 -236
t-144 -227q174 -88 174 -278q0 -166 -118 -242t-349 -75h-223q-201 0 -335 82t-134 219q0 27 17 44t44 17h150q68 0 106 -68t148 -67z" />
    <glyph glyph-name="afii10074" unicode="&#x438;" horiz-adv-x="1384" 
d="M1200 1096q27 0 44 -18t18 -44v-973q0 -27 -18 -44t-44 -17h-209q-27 0 -44 17t-17 44v656l-352 -645q-16 -28 -50 -50t-63 -22h-281q-27 0 -44 17t-17 44v973q0 27 17 44t44 18h209q27 0 44 -18t18 -44v-657l352 647q16 31 49 51t64 21h280z" />
    <glyph glyph-name="afii10075" unicode="&#x439;" horiz-adv-x="1384" 
d="M1200 1096q27 0 44 -18t18 -44v-973q0 -27 -18 -44t-44 -17h-209q-27 0 -44 17t-17 44v656l-352 -645q-16 -28 -50 -50t-63 -22h-281q-27 0 -44 17t-17 44v973q0 27 17 44t44 18h209q27 0 44 -18t18 -44v-657l352 647q16 31 49 51t64 21h280zM412 1526h75q49 0 70 -51
q33 -82 135 -82t135 82q20 51 70 51h76q55 0 55 -51q0 -117 -93 -192t-243 -75t-242 75t-94 192q1 51 56 51z" />
    <glyph glyph-name="afii10076" unicode="&#x43a;" horiz-adv-x="1249" 
d="M1176 0h-189q-96 0 -153 94l-127 207q-82 133 -238 133v-373q0 -27 -17 -44t-44 -17h-224q-27 0 -44 17t-17 44v973q0 27 17 44t44 18h224q27 0 44 -18t17 -44v-372q174 0 238 135l96 204q20 43 59 69t84 26h189q77 -1 34 -95l-129 -272q-33 -68 -90 -117t-123 -63
q123 -37 213 -180l170 -275q25 -42 15 -68t-49 -26z" />
    <glyph glyph-name="afii10077" unicode="&#x43b;" horiz-adv-x="1361" 
d="M279 0h-205q-27 0 -42 19t-9 47l180 727q76 303 502 303h473q27 0 44 -18t17 -44v-973q0 -27 -17 -44t-44 -17h-224q-27 0 -44 17t-17 44v793h-188q-140 0 -177 -147l-157 -633q-8 -34 -35 -54t-57 -20z" />
    <glyph glyph-name="afii10078" unicode="&#x43c;" horiz-adv-x="1724" 
d="M911 0h-98q-63 0 -94 70l-256 616v-625q1 -27 -17 -44t-45 -17h-217q-27 0 -44 17t-17 44v973q0 27 17 44t44 18h344q59 0 90 -74l244 -596l244 596q31 74 90 74h344q27 0 44 -18t18 -44v-973q0 -27 -18 -44t-44 -17h-217q-27 0 -44 17t-17 44v625l-256 -616
q-32 -70 -95 -70z" />
    <glyph glyph-name="afii10079" unicode="&#x43d;" horiz-adv-x="1376" 
d="M469 1034v-358h438v358q-1 27 17 44t45 18h223q27 0 44 -18t17 -44v-973q0 -27 -17 -44t-44 -17h-223q-27 0 -44 17t-18 44v373h-438v-373q0 -27 -17 -44t-44 -17h-224q-27 0 -44 17t-17 44v973q0 27 17 44t44 18h224q27 0 44 -18t17 -44z" />
    <glyph glyph-name="afii10080" unicode="&#x43e;" horiz-adv-x="1331" 
d="M666 1116q292 0 448 -143t156 -424t-156 -425t-448 -144t-449 144q-156 144 -156 425t156 424t449 143zM666 207q133 0 195 82t63 260q0 178 -62 259t-196 81t-196 -81t-62 -259t62 -260t196 -82z" />
    <glyph glyph-name="afii10081" unicode="&#x43f;" horiz-adv-x="1376" 
d="M1253 1034v-973q0 -27 -17 -44t-44 -17h-223q-27 0 -44 17t-18 44v793h-438v-793q0 -27 -17 -44t-44 -17h-224q-27 0 -44 17t-17 44v973q0 27 17 44t44 18h1008q27 0 44 -18t17 -44z" />
    <glyph glyph-name="afii10082" unicode="&#x440;" horiz-adv-x="1355" 
d="M804 1116q210 0 350 -147t140 -421t-145 -422q-145 -146 -391 -146q-127 0 -289 51v-307q0 -26 -17 -44t-44 -18h-224q-27 0 -44 17t-17 45v1310q0 27 17 44t44 18h193q27 0 44 -18t17 -44v-30q157 112 366 112zM938 548q0 170 -54 248t-162 78t-253 -90v-522
q129 -41 217 -41q137 0 195 78q57 78 57 249z" />
    <glyph glyph-name="afii10083" unicode="&#x441;" horiz-adv-x="1271" 
d="M686 874q-150 0 -209 -76q-59 -77 -59 -250t61 -250t214 -77t212 94q47 74 115 74h149q27 0 44 -17t18 -44q-1 -172 -149 -260t-428 -88t-437 144q-156 144 -156 424t155 424t431 144q277 0 425 -88t149 -260q1 -27 -17 -44t-45 -17h-149q-68 0 -115 73q-59 94 -209 94z
" />
    <glyph glyph-name="afii10084" unicode="&#x442;" horiz-adv-x="1148" 
d="M82 1096h985q27 0 44 -18t17 -44v-119q0 -27 -17 -44t-44 -17h-319v-793q0 -27 -18 -44t-44 -17h-223q-27 0 -44 17t-18 44v793h-319q-27 0 -44 17t-18 44v119q0 26 18 44t44 18z" />
    <glyph glyph-name="afii10085" unicode="&#x443;" horiz-adv-x="1294" 
d="M291 1096q29 0 55 -20t35 -48l131 -424q49 -156 99 -216t120 -60l199 700q8 29 32 48t52 20h211q25 0 39 -18t8 -42l-262 -934q-70 -248 -173 -354t-267 -106q-276 0 -315 42q-17 17 -17 40v110q0 27 17 44t44 18h37l131 -17q141 0 197 207q-170 0 -284 102t-196 365
l-149 483q-8 23 7 41t40 19h209z" />
    <glyph glyph-name="afii10086" unicode="&#x444;" horiz-adv-x="1640" 
d="M387 549q-1 -170 65 -249t201 -81v658q-135 -2 -201 -80t-65 -248zM647 1372q-1 27 17 44t45 18h223q27 0 44 -18t17 -44v-276q295 -8 451 -146t156 -401q0 -264 -156 -403q-156 -138 -451 -146v-276q0 -26 -17 -44t-44 -18h-223q-27 0 -44 17t-18 45v276
q-295 8 -451 146t-155 402q-1 264 155 402t451 146v276zM987 877v-658q135 2 201 81t65 249q0 170 -65 248q-66 78 -201 80z" />
    <glyph glyph-name="afii10087" unicode="&#x445;" horiz-adv-x="1277" 
d="M961 1096h217q22 0 34 -14q25 -32 -4 -74l-325 -459l348 -461q23 -28 13 -58t-44 -30h-213q-92 0 -156 88l-192 260l-193 -260q-63 -88 -155 -88h-213q-35 0 -44 31t13 57l348 461l-325 459q-31 44 -4 73q12 14 34 15h217q97 0 156 -88l166 -252l166 252q59 88 156 88z
" />
    <glyph glyph-name="afii10088" unicode="&#x446;" horiz-adv-x="1421" 
d="M1241 1034v-792h98q27 0 44 -18t18 -44v-119q1 -27 -17 -44t-45 -17h-1155q-27 0 -44 17t-17 44v973q0 27 17 44t44 18h224q27 0 44 -18t17 -44v-792h426v792q0 27 17 44t44 18h224q27 0 44 -18t17 -44z" />
    <glyph glyph-name="afii10089" unicode="&#x447;" horiz-adv-x="1269" 
d="M61 739v295q-1 27 17 44t45 18h223q27 0 44 -18t18 -44v-295q0 -77 38 -111t101 -34h254v440q0 27 17 44t44 18h223q27 0 44 -18t18 -44v-973q1 -27 -17 -44t-45 -17h-223q-27 0 -44 17t-17 44v291h-254q-250 0 -368 87t-118 300z" />
    <glyph glyph-name="afii10090" unicode="&#x448;" horiz-adv-x="1910" 
d="M1726 0h-1542q-27 0 -44 17t-17 44v973q0 27 17 44t44 18h224q27 0 44 -18t17 -44v-792h313v792q0 27 18 44t44 18h223q27 0 44 -18t17 -44v-792h314v792q0 27 17 44t44 18h223q27 0 44 -18t18 -44v-973q0 -27 -18 -44t-44 -17z" />
    <glyph glyph-name="afii10091" unicode="&#x449;" horiz-adv-x="1968" 
d="M1886 0h-1702q-27 0 -44 17t-17 44v973q0 27 17 44t44 18h224q27 0 44 -18t17 -44v-792h313v792q0 27 18 44t44 18h223q27 0 44 -18t17 -44v-792h314v792q0 27 17 44t44 18h223q27 0 44 -18t18 -44v-792h98q27 0 44 -18t18 -44v-119q0 -27 -18 -44t-44 -17z" />
    <glyph glyph-name="afii10092" unicode="&#x44a;" horiz-adv-x="1437" 
d="M20 915v119q0 27 18 44t44 18h514q27 0 44 -18t17 -44v-301h283q213 0 330 -84q116 -85 116 -283t-116 -282t-330 -84h-567q-27 0 -44 17t-18 44v793h-229q-26 0 -44 17t-18 44zM909 506h-252v-279h252q61 0 97 36q35 36 34 104q0 67 -35 103t-96 36z" />
    <glyph glyph-name="afii10093" unicode="&#x44b;" horiz-adv-x="1763" 
d="M1579 0h-223q-27 0 -44 17t-18 44v973q0 27 18 44t44 18h223q27 0 44 -18t17 -44v-973q0 -27 -17 -44t-44 -17zM676 510h-213v-287h213q131 -1 131 143t-131 144zM469 733h238q213 0 329 -84q116 -85 117 -283q0 -198 -117 -282t-329 -84h-523q-27 0 -44 17t-17 44v973
q0 27 17 44t44 18h224q27 0 44 -18t17 -44v-301z" />
    <glyph glyph-name="afii10094" unicode="&#x44c;" horiz-adv-x="1269" 
d="M741 506h-272v-279h272q61 0 97 36q35 36 34 104q0 67 -35 103t-96 36zM469 733h303q213 0 330 -84q117 -85 117 -283t-117 -282t-330 -84h-588q-27 0 -44 17t-17 44v973q0 27 17 44t44 18h224q27 0 44 -18t17 -44v-301z" />
    <glyph glyph-name="afii10095" unicode="&#x44d;" horiz-adv-x="1271" 
d="M628 1116q278 0 430 -144t152 -425t-154 -424t-434 -143q-282 0 -432 84t-149 241q0 27 17 44t44 18h150q63 0 122 -73t196 -73t200 51t76 160h-354q-26 0 -44 18t-18 44v104q0 27 17 44t45 17h354q-20 215 -254 215q-150 0 -208 -72t-122 -73h-149q-27 0 -44 17t-18 45
q-1 157 149 241t428 84z" />
    <glyph glyph-name="afii10096" unicode="&#x44e;" horiz-adv-x="1824" 
d="M1186 889q-232 0 -232 -341t232 -341t231 341q0 341 -231 341zM469 1034v-358h147q27 215 179 328q153 112 407 112t408 -145t154 -423t-154 -423t-411 -145t-409 116t-176 338h-145v-373q0 -27 -17 -44t-44 -17h-224q-27 0 -44 17t-17 44v973q0 27 17 44t44 18h224
q27 0 44 -18t17 -44z" />
    <glyph glyph-name="afii10097" unicode="&#x44f;" horiz-adv-x="1294" 
d="M551 618h274v250h-274q-61 0 -96 -34t-35 -90q0 -58 35 -92t96 -34zM825 391h-196l-170 -303q-49 -88 -156 -88h-180q-37 0 -48 27t11 61l201 336q-213 80 -213 319q0 352 446 353h590q27 0 44 -18t17 -44v-973q0 -27 -17 -44t-44 -17h-223q-27 0 -44 17t-18 44v330z" />
    <glyph glyph-name="afii10071" unicode="&#x451;" horiz-adv-x="1290" 
d="M733 1300v39q0 53 31 84t84 31h96q53 0 84 -31t31 -84v-39q0 -54 -31 -84t-84 -30h-96q-53 0 -84 30t-31 84zM231 1300v39q0 53 31 84t84 31h96q53 0 84 -31t31 -84v-39q0 -54 -31 -84t-84 -30h-96q-53 0 -84 30t-31 84zM645 889q-221 0 -233 -236h465q-11 236 -232 236z
M1167 442h-753q10 -123 70 -179t194 -56t182 60q49 60 121 61h149q26 0 44 -18t18 -44q0 -287 -547 -286q-276 0 -430 146t-154 420t155 422t430 148t429 -143t154 -412v-57q1 -26 -17 -44t-45 -18z" />
    <glyph glyph-name="afii10099" unicode="&#x452;" horiz-adv-x="1492" 
d="M1024 113v379q0 240 -190 239q-125 0 -269 -143v-527q0 -27 -17 -44t-44 -17h-223q-27 0 -44 17t-18 44v994h-137q-27 0 -44 17t-18 44v109q0 27 18 44t44 17h137v86q-1 27 17 44t45 18h223q27 0 44 -18t17 -44v-86h158q27 0 44 -17t17 -44v-109q0 -27 -17 -44t-44 -17
h-158v-228q172 145 350 146q211 0 333 -119t122 -362v-379q0 -471 -387 -471q-137 0 -225 20q-61 14 -62 62v108q0 27 18 44t44 18h30l103 -15q55 -1 94 55t39 179z" />
    <glyph glyph-name="afii10100" unicode="&#x453;" horiz-adv-x="1013" 
d="M545 1171h-27q-133 0 -92 136l70 229q14 47 58 81t93 34h70q81 0 117 -45t-3 -111l-129 -209q-72 -115 -157 -115zM932 854h-463v-793q0 -27 -17 -44t-44 -17h-224q-27 0 -44 17t-17 44v973q0 27 17 44t44 18h748q27 0 44 -18t17 -44v-119q0 -27 -17 -44t-44 -17z" />
    <glyph glyph-name="afii10101" unicode="&#x454;" horiz-adv-x="1271" 
d="M61 547q1 281 153 425t430 144t427 -84q150 -84 150 -241q1 -27 -17 -45t-45 -17h-149q-63 0 -122 73t-208 72q-233 0 -254 -215h354q27 0 44 -17t18 -44v-104q0 -27 -18 -44t-44 -18h-354q12 -109 76 -160t200 -51q138 0 196 73t122 73h149q27 1 44 -17t18 -45
q0 -158 -150 -242q-150 -83 -431 -83t-435 143t-154 424z" />
    <glyph glyph-name="afii10102" unicode="&#x455;" horiz-adv-x="1224" 
d="M1163 303q0 -166 -148 -245t-403 -78q-549 0 -549 286q-1 27 17 44t45 18h149q72 0 121 -61t193 -60q229 0 229 96q0 45 -78 75q-77 30 -189 54t-222 58t-189 111q-78 77 -78 192q-1 163 143 243t378 80q549 0 548 -287q0 -27 -17 -44t-44 -17h-149q-72 0 -121 60
t-193 61q-199 0 -198 -96q0 -45 78 -75t189 -52q113 -22 223 -58t188 -112t77 -193z" />
    <glyph glyph-name="afii10103" unicode="&#x456;" horiz-adv-x="600" 
d="M123 1305v34q0 53 31 84t84 31h124q53 0 84 -31t31 -84v-34q0 -53 -31 -84t-84 -31h-124q-53 0 -84 31t-31 84zM412 0h-224q-27 0 -44 17t-17 44v949q0 27 17 44t44 17h224q27 0 44 -17t17 -44v-949q0 -27 -17 -44t-44 -17z" />
    <glyph glyph-name="afii10104" unicode="&#x457;" horiz-adv-x="628" 
d="M-41 1305v34q0 53 31 84t84 31h73q53 0 84 -31t31 -84v-34q0 -53 -31 -84t-84 -31h-73q-53 0 -84 31t-31 84zM367 1311v35q0 53 30 84q31 31 84 30h74q53 0 84 -30t31 -84v-35q0 -53 -31 -84t-84 -31h-74q-53 0 -84 31q-30 31 -30 84zM426 0h-223q-27 0 -44 17t-18 44
v949q-1 27 17 44t45 17h223q27 0 44 -17t17 -44v-949q0 -27 -17 -44t-44 -17z" />
    <glyph glyph-name="afii10105" unicode="&#x458;" horiz-adv-x="616" 
d="M139 1305v34q0 53 31 84t84 31h125q53 0 84 -31t31 -84v-34q0 -53 -31 -84t-84 -31h-125q-53 0 -84 31t-31 84zM143 113v897q-1 27 17 44t45 17h223q27 0 44 -17t17 -44v-897q0 -471 -387 -471q-137 0 -225 20q-61 14 -61 62v108q0 27 17 44t44 18h31l102 -15q55 0 94 55
t39 179z" />
    <glyph glyph-name="afii10106" unicode="&#x459;" horiz-adv-x="1968" 
d="M1450 506h-252v-279h252q61 0 96 36t35 104q0 67 -35 103t-96 36zM279 0h-205q-27 0 -42 19t-9 47l180 727q76 303 502 303h432q27 0 44 -18t17 -44v-301h283q213 0 329 -84q116 -85 117 -283q0 -198 -117 -282t-329 -84h-568q-27 0 -44 17t-17 44v793h-147
q-140 0 -177 -147l-157 -633q-8 -34 -35 -54t-57 -20z" />
    <glyph glyph-name="afii10107" unicode="&#x45a;" horiz-adv-x="1982" 
d="M1464 469h-252v-242h252q61 0 97 32q35 32 34 89q0 57 -34 89q-36 32 -97 32zM469 1034v-338h397v338q0 27 18 44t44 18h223q27 0 44 -18t17 -44v-338h283q446 0 447 -348q0 -348 -447 -348h-567q-27 0 -44 17t-18 44v394h-397v-394q0 -27 -17 -44t-44 -17h-224
q-27 0 -44 17t-17 44v973q0 27 17 44t44 18h224q27 0 44 -18t17 -44z" />
    <glyph glyph-name="afii10108" unicode="&#x45b;" horiz-adv-x="1492" 
d="M82 1286h137v86q-1 27 17 44t45 18h223q27 0 44 -18t17 -44v-86h158q27 0 44 -17t17 -44v-109q0 -27 -17 -44t-44 -17h-158v-228q172 145 350 146q211 0 333 -119t122 -362v-431q0 -27 -17 -44t-44 -17h-224q-27 0 -44 17t-17 44v431q0 240 -190 239q-125 0 -269 -143
v-527q0 -27 -17 -44t-44 -17h-223q-27 0 -44 17t-18 44v994h-137q-27 0 -44 17t-18 44v109q0 27 18 44t44 17z" />
    <glyph glyph-name="afii10109" unicode="&#x45c;" horiz-adv-x="1249" 
d="M653 1157h-26q-133 0 -92 135l69 230q14 47 58 81t94 33h69q82 0 118 -44t-3 -111l-129 -209q-72 -115 -158 -115zM1176 0h-189q-96 0 -153 94l-127 207q-82 133 -238 133v-373q0 -27 -17 -44t-44 -17h-224q-27 0 -44 17t-17 44v973q0 27 17 44t44 18h224q27 0 44 -18
t17 -44v-372q174 0 238 135l96 204q20 43 59 69t84 26h189q77 -1 34 -95l-129 -272q-33 -68 -90 -117t-123 -63q123 -37 213 -180l170 -275q25 -42 15 -68t-49 -26z" />
    <glyph glyph-name="afii10110" unicode="&#x45e;" horiz-adv-x="1294" 
d="M385 1505h76q49 0 69 -51q34 -82 136 -82t135 82q20 51 69 51h76q55 0 55 -51q0 -118 -93 -192q-92 -74 -242 -74t-243 75t-93 191q0 51 55 51zM291 1096q29 0 55 -20t35 -48l131 -424q49 -156 99 -216t120 -60l199 700q8 29 32 48t52 20h211q25 0 39 -18t8 -42
l-262 -934q-70 -248 -173 -354t-267 -106q-276 0 -315 42q-17 17 -17 40v110q0 27 17 44t44 18h37l131 -17q141 0 197 207q-170 0 -284 102t-196 365l-149 483q-8 23 7 41t40 19h209z" />
    <glyph glyph-name="afii10193" unicode="&#x45f;" horiz-adv-x="1376" 
d="M1253 1034v-973q0 -27 -17 -44t-44 -17h-348v-260q0 -27 -18 -44t-44 -18h-188q-27 0 -44 18t-18 44v260h-348q-27 0 -44 17t-17 44v973q0 27 17 44t44 18h224q27 0 44 -18t17 -44v-792h438v792q-1 27 17 44t45 18h223q27 0 44 -18t17 -44z" />
    <glyph glyph-name="afii10050" unicode="&#x490;" horiz-adv-x="1318" 
d="M956 1434v125q0 39 28 65t67 27h153q39 0 67 -27t27 -65v-314q0 -41 -26 -67t-68 -27h-684v-1059q0 -40 -28 -66t-66 -26h-188q-39 0 -67 27t-28 65v1247q0 41 27 68t68 27h718z" />
    <glyph glyph-name="afii10098" unicode="&#x491;" horiz-adv-x="1013" 
d="M184 1096h504v127q0 27 18 44t44 17h182q27 0 44 -17t17 -44v-308q0 -27 -17 -44t-44 -17h-463v-793q0 -27 -17 -44t-44 -17h-224q-27 0 -44 17t-17 44v973q0 26 17 44t44 18z" />
    <glyph glyph-name="endash" unicode="&#x2013;" horiz-adv-x="763" 
d="M102 748h560q27 0 44 -18t17 -44v-151q0 -27 -17 -45t-44 -17h-560q-27 0 -44 17t-17 45v151q0 26 17 44t44 18z" />
    <glyph glyph-name="emdash" unicode="&#x2014;" horiz-adv-x="1257" 
d="M102 750h1053q27 0 44 -18t18 -44v-119q1 -27 -17 -44t-45 -17h-1053q-27 0 -44 17t-17 44v119q0 26 17 44t44 18z" />
    <glyph glyph-name="quoteleft" unicode="&#x2018;" horiz-adv-x="550" 
d="M373 1434h39q64 0 84 -33t8 -103l-60 -321q-8 -47 -54 -81t-97 -34h-82q-80 0 -112 42t-3 114l119 301q21 49 63 82t95 33z" />
    <glyph glyph-name="quoteright" unicode="&#x2019;" horiz-adv-x="550" 
d="M178 862h-39q-63 0 -84 33q-20 33 -8 102l59 322q8 47 54 81t98 34h82q80 0 112 -42t3 -114l-119 -301q-20 -49 -62 -82t-96 -33z" />
    <glyph glyph-name="quotesinglbase" unicode="&#x201a;" horiz-adv-x="550" 
d="M178 -248h-39q-63 0 -84 33q-20 33 -8 102l59 322q8 47 54 81t98 34h82q80 0 112 -42t3 -114l-119 -301q-20 -49 -62 -82t-96 -33z" />
    <glyph glyph-name="quotedblleft" unicode="&#x201c;" horiz-adv-x="980" 
d="M373 1434h39q64 0 84 -33t8 -103l-60 -321q-8 -47 -54 -81t-97 -34h-82q-80 0 -112 42t-3 114l119 301q21 49 63 82t95 33zM803 1434h39q64 0 84 -33t8 -103l-60 -321q-8 -47 -54 -81t-97 -34h-82q-80 0 -112 42t-3 114l119 301q21 49 63 82t95 33z" />
    <glyph glyph-name="quotedblright" unicode="&#x201d;" horiz-adv-x="980" 
d="M608 862h-39q-63 0 -84 33q-20 33 -8 102l60 322q8 47 54 81t97 34h82q80 0 112 -42t3 -114l-119 -301q-20 -49 -62 -82t-96 -33zM178 862h-39q-63 0 -84 33q-20 33 -8 102l59 322q8 47 54 81t98 34h82q80 0 112 -42t3 -114l-119 -301q-20 -49 -62 -82t-96 -33z" />
    <glyph glyph-name="quotedblbase" unicode="&#x201e;" horiz-adv-x="980" 
d="M608 -248h-39q-63 0 -84 33q-20 33 -8 102l60 322q8 47 54 81t97 34h82q80 0 112 -42t3 -114l-119 -301q-20 -49 -62 -82t-96 -33zM178 -248h-39q-63 0 -84 33q-20 33 -8 102l59 322q8 47 54 81t98 34h82q80 0 112 -42t3 -114l-119 -301q-20 -49 -62 -82t-96 -33z" />
    <glyph glyph-name="dagger" unicode="&#x2020;" 
d="M1188 639v491h-264q-98 0 -172 -54t-99 -146l-82 -291h617zM1479 1434q37 0 61 -28t25 -65v-30h-654q-217 0 -339 -94t-154 -222l-262 -995h-62q-39 0 -59 26t-10 66l251 952q102 389 664 390h539zM1188 518h-834l115 424q43 160 166 236t295 75h635v-1161q0 -40 -28 -66
t-67 -26h-188q-41 0 -68 27t-26 67v242h-690l-68 -242q-10 -42 -45 -68t-74 -26h-92l125 461h844v57z" />
    <glyph glyph-name="daggerdbl" unicode="&#x2021;" horiz-adv-x="899" 
d="M82 1096h194v276q0 27 18 44t44 18h223q27 0 44 -18t18 -44v-276h194q27 0 44 -18t18 -44v-119q1 -27 -17 -44t-45 -17h-194v-612h194q27 0 44 -18t18 -44v-119q1 -27 -17 -44t-45 -17h-194v-276q1 -26 -17 -44t-45 -18h-223q-27 0 -44 17t-18 45v276h-194q-27 0 -44 17
t-18 44v119q0 27 18 44t44 18h194v612h-194q-27 0 -44 17t-18 44v119q0 26 18 44t44 18z" />
    <glyph glyph-name="bullet" unicode="&#x2022;" horiz-adv-x="819" 
d="M758 625q0 -154 -100 -243t-248 -89q-150 0 -249 89t-100 243q-1 155 99 243t250 88t249 -88t99 -243z" />
    <glyph glyph-name="ellipsis" unicode="&#x2026;" horiz-adv-x="1519" 
d="M1044 125v63q0 66 35 101t101 35h123q135 0 135 -136v-63q0 -63 -35 -99t-100 -36h-123q-66 0 -101 36t-35 99zM563 125v63q0 66 36 101t99 35h123q63 0 99 -35t36 -101v-63q0 -63 -36 -99t-99 -36h-123q-63 0 -99 36t-36 99zM82 125v63q0 66 35 101t100 35h123
q135 0 135 -136v-63q0 -63 -35 -99t-100 -36h-123q-67 0 -101 36t-34 99z" />
    <glyph glyph-name="perthousand" unicode="&#x2030;" horiz-adv-x="2353" 
d="M2292 313q0 -155 -100 -243t-247 -88q-146 0 -243 89q-96 89 -96 243t96 242q96 89 242 89t248 -89q100 -89 100 -243zM2058 313q0 68 -32 107t-82 39t-77 -38q-28 -38 -28 -108q0 -69 28 -107t78 -38q49 0 81 38t32 107zM758 1122q0 -154 -100 -242t-248 -89
q-150 0 -249 89q-99 88 -99 242t98 243q100 89 250 89t249 -89t99 -243zM524 1122q0 68 -30 107q-31 39 -84 39t-84 -39t-31 -107t31 -106t84 -39q54 1 84 39t30 106zM1565 313q-1 -155 -101 -243t-246 -88t-243 89q-96 89 -96 243t96 242q97 89 243 89t246 -89t101 -243z
M1331 313q0 68 -32 107q-31 39 -81 39t-78 -38t-28 -108q0 -69 28 -107t78 -38t82 38t31 107zM1346 1434h159q39 0 50 -31t-15 -64l-997 -1245q-74 -94 -174 -94h-160q-39 0 -50 31t15 63l997 1245q75 95 175 95z" />
    <glyph glyph-name="guilsinglleft" unicode="&#x2039;" horiz-adv-x="860" 
d="M61 522v49q0 66 60 109l569 403q35 23 62 10t26 -51v-172q0 -74 -88 -135l-266 -188l266 -189q88 -61 88 -135v-172q0 -37 -26 -50t-62 9l-569 404q-60 42 -60 108z" />
    <glyph glyph-name="guilsinglright" unicode="&#x203a;" horiz-adv-x="860" 
d="M799 571v-49q0 -66 -60 -108l-569 -404q-36 -24 -62 -10t-26 51v172q0 74 88 135l266 189l-266 188q-88 61 -88 135v172q0 36 27 50t61 -9l569 -403q60 -43 60 -109z" />
    <glyph glyph-name="Euro" unicode="&#x20ac;" horiz-adv-x="1771" 
d="M1157 745h-1126v48q0 27 17 44t44 17h74q66 588 735 588h223q142 0 272 -47t217 -145t87 -228q0 -59 -35 -85t-68 -26h-118q-90 0 -144 111q-68 137 -245 137h-179q-190 -1 -274 -69t-94 -236h553q27 0 44 -17t17 -44v-48zM0 690h1126v-47q0 -27 -17 -44t-44 -17h-522
q8 -170 93 -239t275 -69h199q178 0 246 138q53 111 143 110h119q48 0 76 -35t26 -75q0 -130 -87 -228t-216 -145t-272 -47h-244q-676 0 -735 590h-105q-27 0 -44 17t-17 44v47z" />
    <glyph glyph-name="afii61352" unicode="&#x2116;" horiz-adv-x="2406" 
d="M2365 1122q0 -154 -99 -242t-249 -89q-150 0 -249 89q-99 88 -99 242t99 243t249 89t249 -89t99 -243zM2132 1122q0 68 -31 107t-84 39t-84 -39t-31 -107t32 -106q30 -38 83 -39q53 1 84 39t31 106zM1776 723h483q27 0 44 -17t17 -44v-119q0 -27 -17 -44t-44 -18h-483
q-27 -1 -44 17t-18 45v119q0 27 18 44t44 17zM414 0h-176q-39 0 -67 28t-28 66v1245q0 39 27 67t66 28h294q35 0 75 -29t63 -66l563 -915v917q0 39 27 66q28 27 67 27h172q39 0 67 -27t27 -68v-1245q1 -38 -27 -66t-67 -28h-332q-39 0 -80 28t-65 66l-512 844v-844
q0 -38 -28 -66t-66 -28z" />
    <glyph glyph-name="trademark" unicode="&#x2122;" horiz-adv-x="1650" 
d="M1178 776h-58q-35 0 -57 43l-152 369v-375q0 -13 -11 -25t-26 -12h-129q-16 0 -26 11t-10 26v584q0 37 36 37h205q35 0 54 -43l145 -359l145 359q18 43 54 43h204q37 0 37 -37v-584q0 -13 -10 -25t-27 -12h-129q-14 0 -25 11t-12 26v375l-151 -369q-22 -43 -57 -43z
M35 1434h588q37 0 36 -37v-70q0 -37 -36 -37h-191v-477q0 -13 -11 -25t-26 -12h-133q-16 0 -26 11t-11 26v477h-190q-35 0 -35 37v70q0 37 35 37z" />
    <glyph glyph-name="_0152" 
d="M1188 639v491h-264q-98 0 -172 -54t-99 -146l-82 -291h617zM1479 1434q37 0 61 -28t25 -65v-30h-654q-217 0 -339 -94t-154 -222l-262 -995h-62q-39 0 -59 26t-10 66l251 952q102 389 664 390h539zM1188 518h-834l115 424q43 160 166 236t295 75h635v-1161q0 -40 -28 -66
t-67 -26h-188q-41 0 -68 27t-26 67v242h-690l-68 -242q-10 -42 -45 -68t-74 -26h-92l125 461h844v57z" />
    <glyph glyph-name="_0127" horiz-adv-x="716" 
 />
    </font>
</defs>
</svg>
